<?xml version="1.0" standalone="no"?>
<!DOCTYPE svg PUBLIC "-//W3C//DTD SVG 20010904//EN"
 "http://www.w3.org/TR/2001/REC-SVG-20010904/DTD/svg10.dtd">
<svg version="1.0" xmlns="http://www.w3.org/2000/svg"
 width="1024.000000pt" height="1024.000000pt" viewBox="0 0 1024.000000 1024.000000"
 preserveAspectRatio="xMidYMid meet">

<g transform="translate(0.000000,1024.000000) scale(0.100000,-0.100000)"
fill="#000000" stroke="none">
<path d="M4814 9895 c-69 -19 -154 -57 -208 -94 -25 -17 -48 -31 -53 -32 -4 0
-28 -24 -53 -54 -25 -29 -54 -58 -65 -64 -11 -6 -32 -20 -47 -32 -26 -21 -28
-21 -52 -5 -14 9 -26 21 -26 27 0 12 -61 67 -107 95 -40 25 -31 38 17 24 44
-13 50 -6 9 9 -56 19 -142 -6 -171 -51 -19 -30 -31 -78 -19 -78 5 0 12 6 15
13 33 66 41 72 97 69 42 -2 58 -8 71 -25 10 -12 18 -18 18 -14 0 12 30 -20 30
-32 0 -6 -9 -20 -20 -31 -19 -19 -20 -19 -20 -1 0 23 -37 71 -55 71 -8 0 -30
-9 -48 -19 -48 -27 -67 -36 -112 -56 -31 -14 -36 -19 -22 -24 15 -6 15 -9 3
-26 -19 -27 -85 -62 -94 -49 -4 5 -13 10 -20 12 -7 1 -30 13 -50 26 -20 13
-55 29 -76 36 -41 13 -131 9 -162 -8 -64 -35 -105 -51 -117 -46 -16 6 -121
-73 -155 -116 -62 -79 -69 -192 -18 -312 6 -13 -1 -19 -33 -28 -36 -9 -50 -8
-112 15 -85 30 -131 32 -170 4 -42 -29 -59 -69 -59 -136 0 -96 -10 -131 -41
-154 -16 -11 -44 -21 -61 -21 -83 -2 -207 -134 -248 -263 -7 -22 -15 -44 -18
-50 -7 -11 -8 -22 -10 -132 l-2 -83 -33 0 c-19 0 -67 11 -107 25 -92 31 -132
31 -186 0 -83 -49 -151 -214 -115 -283 15 -28 79 -194 92 -237 19 -64 40 -107
76 -152 l33 -41 -43 -33 c-23 -19 -48 -41 -55 -51 -34 -46 -39 -48 -158 -48
l-114 0 -35 37 c-19 20 -37 34 -41 30 -4 -3 1 -13 10 -22 9 -9 16 -21 16 -27
0 -6 -10 1 -21 16 -12 15 -19 30 -16 33 9 8 -63 93 -78 93 -9 0 -5 -20 12 -67
14 -38 29 -93 34 -123 9 -59 37 -130 50 -130 23 0 49 -106 33 -131 -7 -12 -41
26 -92 101 -20 30 -49 67 -64 82 -15 15 -28 32 -28 38 0 5 -9 10 -20 10 -31 0
-25 -13 40 -81 51 -54 130 -179 114 -179 -3 0 -21 12 -40 26 -46 36 -46 9 1
-36 19 -19 35 -37 35 -42 0 -11 -47 8 -82 33 -16 12 -31 19 -34 17 -2 -3 11
-37 28 -77 32 -70 32 -73 14 -87 -10 -7 -23 -11 -27 -8 -5 3 -9 0 -9 -5 0 -6
-11 -11 -25 -11 -25 0 -47 -14 -97 -63 -34 -34 -42 -63 -35 -130 5 -49 3 -54
-29 -83 -19 -18 -34 -41 -34 -54 0 -26 59 -109 78 -110 16 0 15 -23 -3 -67
-19 -46 -19 -143 0 -217 17 -64 14 -85 -14 -110 -19 -17 -20 -16 -27 41 -4 32
-2 108 3 168 6 61 9 112 7 114 -1 1 -8 -17 -15 -40 -9 -30 -12 -99 -11 -213 2
-150 0 -175 -20 -237 -12 -38 -25 -69 -30 -69 -9 0 -22 47 -20 74 1 13 -2 16
-9 9 -6 -6 -8 -34 -4 -70 6 -52 11 -61 37 -76 16 -9 33 -17 38 -17 5 0 21 -5
36 -11 l28 -10 -28 -18 -28 -18 28 -7 27 -7 -24 -17 c-13 -9 -28 -17 -33 -17
-5 0 -18 -13 -30 -28 -17 -24 -21 -46 -24 -138 -3 -60 -8 -109 -13 -109 -12 0
-12 -47 0 -54 5 -4 11 -1 13 4 2 6 27 -23 56 -65 58 -83 77 -95 38 -24 -47 86
-41 144 21 200 25 23 26 24 21 3 -6 -24 4 -25 38 -6 19 10 23 9 28 -12 3 -14
4 -31 1 -38 -9 -22 21 -82 62 -125 65 -66 81 -71 27 -8 -61 73 -72 95 -41 87
21 -5 91 -47 113 -67 6 -5 43 -26 82 -45 39 -19 72 -41 72 -47 0 -7 4 -13 10
-13 11 0 6 -127 -5 -138 -4 -4 -5 4 -2 18 5 22 2 27 -29 36 l-35 11 26 -26
c26 -28 24 -41 -7 -41 -28 0 -199 59 -245 85 -47 26 -55 22 -20 -11 25 -23 98
-53 205 -84 69 -20 84 -31 62 -45 -20 -12 -10 -27 15 -23 14 3 28 1 31 -4 3
-4 2 -8 -3 -6 -11 3 -85 -43 -79 -49 3 -3 22 1 43 9 21 9 47 12 58 8 16 -6 13
-8 -15 -15 l-35 -8 35 -7 c28 -6 30 -8 10 -9 -14 -1 -20 -5 -15 -9 15 -10 13
-28 -8 -52 -9 -11 -17 -25 -17 -30 0 -6 -15 -10 -32 -11 -31 -1 -30 -1 17 -19
63 -23 90 -24 154 -3 52 16 131 80 131 105 0 7 -7 3 -15 -9 -17 -24 -114 -83
-136 -83 -8 0 9 14 36 32 28 17 63 41 78 54 16 13 33 22 38 18 10 -6 12 -74 3
-98 -9 -23 -66 -55 -116 -66 -43 -9 -43 -9 12 -5 78 5 94 9 103 20 5 6 7 4 5
-5 -3 -8 -24 -24 -48 -37 -36 -19 -52 -22 -99 -17 -31 4 -78 16 -106 26 -55
22 -151 98 -168 135 -19 43 -65 15 -53 -33 9 -35 166 -191 211 -209 19 -9 67
-18 107 -21 64 -6 77 -10 108 -39 108 -100 233 -177 273 -169 11 2 25 -1 32
-6 6 -5 24 -14 39 -20 26 -9 28 -9 16 5 -16 19 -17 19 47 39 29 10 66 30 83
46 16 15 32 25 35 21 2 -4 -5 -57 -15 -117 -17 -91 -20 -157 -20 -399 -1 -381
-35 -828 -65 -851 -9 -7 -113 -14 -277 -18 -431 -11 -701 -34 -857 -72 -90
-22 -221 -87 -280 -140 -58 -52 -116 -137 -143 -208 -11 -28 -30 -100 -42
-160 l-22 -109 -27 25 c-15 14 -27 33 -27 42 0 9 -6 16 -14 16 -7 0 -25 9 -38
20 -14 10 -28 16 -32 13 -3 -3 -6 -1 -6 5 0 6 -11 24 -25 39 -39 45 -45 52
-45 58 0 3 -16 40 -35 81 -19 41 -35 78 -35 83 0 5 -16 30 -35 55 -19 26 -35
51 -35 56 0 6 -4 10 -10 10 -5 0 -10 12 -10 26 0 15 -9 34 -20 44 -19 17 -19
17 4 37 12 11 39 23 59 27 21 4 37 12 37 17 0 13 150 4 159 -9 8 -12 79 -23
85 -13 3 4 7 36 10 70 5 69 25 101 62 101 27 0 89 73 126 150 7 14 16 27 19
30 4 3 9 21 11 40 3 32 -2 40 -58 88 -34 29 -67 66 -74 82 -17 42 -5 92 34
139 18 22 44 70 57 107 18 50 38 84 77 126 77 83 112 102 173 95 52 -6 64 6
36 35 -8 7 -19 23 -26 36 -6 12 -18 22 -26 22 -7 0 -16 6 -18 13 -3 7 -6 4 -6
-6 -1 -15 -8 -18 -38 -15 -37 3 -38 4 -41 49 -5 80 -68 114 -184 99 -136 -19
-272 -136 -331 -286 -9 -23 -29 -70 -46 -105 -16 -35 -42 -95 -56 -134 -15
-38 -34 -89 -43 -112 -15 -39 -15 -44 0 -76 28 -58 32 -101 13 -156 -11 -33
-15 -75 -14 -120 2 -39 1 -71 -1 -73 -37 -24 -54 -30 -58 -19 -2 7 -13 5 -30
-8 -15 -10 -37 -22 -49 -25 -13 -4 -23 -12 -23 -17 0 -5 -7 -9 -15 -9 -8 0
-14 -5 -13 -12 2 -6 -6 -16 -17 -22 -11 -6 -19 -18 -17 -27 2 -11 -7 -18 -29
-23 -46 -9 -45 -9 -46 30 -1 20 -5 39 -11 43 -5 3 -13 20 -16 38 -4 17 -14 37
-22 44 -8 6 -14 24 -14 40 0 30 -19 54 -50 64 -33 10 -131 -15 -154 -39 -59
-63 -54 -4 -55 -731 l-1 -666 35 -14 c36 -16 59 -12 87 14 41 38 53 43 131 56
124 20 227 45 238 58 5 7 16 20 23 31 12 18 16 18 77 3 35 -8 85 -18 111 -22
43 -6 49 -4 70 21 46 54 48 55 105 52 49 -3 56 -6 71 -33 9 -16 28 -41 42 -54
24 -24 25 -28 28 -195 2 -94 -1 -191 -5 -216 l-9 -45 -459 -1 c-253 -1 -479
-2 -502 -3 l-43 -1 0 -54 0 -53 78 -6 c42 -2 149 0 237 5 88 6 212 11 275 13
63 1 179 3 258 5 78 1 145 0 149 -3 6 -7 6 -97 -1 -104 -6 -6 -18 -6 -182 -3
-126 3 -154 -1 -154 -20 0 -5 39 -21 88 -35 122 -37 170 -57 165 -71 -2 -6 3
-14 11 -17 10 -4 15 -17 14 -32 -1 -14 -7 -24 -13 -21 -5 2 -18 -1 -29 -6 -13
-7 -16 -7 -11 1 4 7 -8 18 -32 28 -32 13 -86 16 -343 17 -168 1 -351 0 -408
-2 l-102 -3 0 -60 0 -60 160 5 c87 2 163 6 167 9 4 2 26 3 48 2 55 -3 433 14
471 21 30 6 31 5 48 -60 13 -46 16 -78 10 -108 -4 -24 -8 -96 -8 -161 -1 -107
1 -120 18 -129 12 -7 232 -7 655 -2 1091 15 2286 4 2881 -27 113 -5 279 -14
370 -18 146 -6 174 -11 245 -36 l80 -30 -50 -11 c-27 -7 -72 -13 -100 -13 -89
-2 -35 -20 120 -40 251 -33 501 -60 685 -76 96 -8 261 -24 365 -35 105 -11
334 -34 510 -50 176 -17 367 -35 425 -40 269 -26 459 -41 625 -50 175 -9 184
-10 320 -55 159 -53 223 -62 297 -44 39 9 53 9 56 0 6 -18 238 -15 245 3 3 8
22 18 41 22 20 3 36 12 36 19 0 17 102 26 313 27 105 0 167 4 167 11 0 6 23 7
63 4 34 -4 103 -2 152 5 111 13 202 18 373 18 75 0 132 3 132 9 0 5 37 9 83
10 81 1 170 8 215 17 l22 4 0 2065 0 2065 -22 1 c-78 4 -94 3 -104 -10 -10
-12 -16 -10 -38 12 -23 23 -27 24 -36 9 -9 -16 -11 -16 -25 2 -13 17 -23 18
-95 12 -54 -5 -80 -4 -80 3 0 6 -18 11 -40 11 -35 0 -40 3 -41 23 0 12 -3 16
-6 10 -2 -7 -11 -13 -18 -13 -7 0 -15 6 -18 13 -3 9 -7 9 -19 0 -12 -11 -17
-9 -26 12 -14 31 -28 32 -36 3 l-7 -23 -11 22 c-10 21 -18 23 -95 23 -68 0
-83 3 -83 16 0 8 -13 20 -30 25 -16 6 -28 16 -27 22 1 8 -30 15 -90 20 -70 7
-93 13 -93 23 0 8 -13 17 -30 20 -16 4 -35 13 -41 20 -6 8 -20 14 -31 14 -11
0 -28 5 -39 10 -14 8 -19 7 -19 -2 0 -7 -9 2 -21 21 -16 26 -25 32 -44 29 -13
-3 -26 0 -28 6 -2 6 -20 4 -50 -8 -99 -37 -134 -132 -227 -611 -17 -88 -39
-198 -50 -245 -11 -47 -31 -143 -44 -215 -14 -71 -39 -193 -56 -270 -18 -77
-34 -151 -36 -165 -2 -14 -11 -52 -19 -85 -8 -33 -24 -100 -35 -150 -11 -49
-31 -130 -45 -180 -14 -49 -30 -133 -36 -185 -13 -115 -34 -230 -61 -330 -11
-41 -24 -91 -28 -110 -14 -68 -33 -135 -40 -145 -24 -34 -60 -176 -60 -238 -1
-29 -7 -78 -14 -110 -11 -43 -12 -64 -3 -86 15 -40 -4 -61 -54 -61 -35 0 -109
14 -149 28 -8 3 -17 6 -20 7 -3 1 -12 4 -20 7 -8 3 -55 13 -105 23 -80 14 -91
15 -101 1 -6 -9 -15 -12 -19 -8 -4 4 -6 0 -3 -8 2 -8 22 -23 44 -35 22 -11 60
-34 84 -51 25 -17 68 -43 95 -57 60 -30 111 -76 153 -139 47 -69 42 -106 -24
-161 -17 -14 -27 -16 -48 -7 -15 5 -33 16 -40 23 -7 6 -33 30 -57 53 -24 22
-65 66 -92 97 -26 31 -56 59 -67 62 -11 4 -18 10 -15 15 3 5 -10 13 -29 19
-20 5 -49 19 -66 31 -18 13 -39 20 -50 17 -12 -3 -20 0 -20 7 0 22 -162 82
-184 69 -5 -4 -6 -1 -3 4 9 14 -16 24 -75 33 -42 6 -48 4 -48 -11 0 -10 12
-26 28 -36 30 -21 261 -119 327 -139 77 -23 102 -42 181 -141 43 -54 81 -100
84 -103 3 -3 39 -48 80 -100 l75 -95 -2 -64 c-2 -47 -7 -67 -20 -77 -33 -25
-61 -17 -91 27 -15 22 -47 64 -72 93 -25 29 -58 70 -75 91 -16 22 -76 84 -133
139 -68 66 -105 110 -109 128 -4 23 -11 28 -34 28 -16 0 -29 4 -29 9 0 5 -12
12 -27 15 -16 4 -77 27 -138 51 -149 60 -267 78 -288 43 -21 -32 27 -65 168
-113 44 -15 90 -35 103 -43 12 -8 54 -56 92 -108 91 -120 124 -148 164 -139
90 18 92 18 130 -15 39 -35 47 -60 17 -60 -10 0 -24 -7 -31 -15 -7 -9 -19 -14
-27 -11 -24 10 -13 -5 55 -69 65 -62 69 -65 119 -65 29 0 63 -5 76 -11 26 -12
47 -47 47 -77 0 -10 5 -23 11 -29 6 -6 9 -28 7 -49 -5 -62 -21 -66 -243 -60
-104 2 -200 8 -212 12 -34 10 -28 24 10 25 30 1 31 1 7 9 -19 6 -13 8 30 9 52
2 102 23 87 37 -3 4 -24 2 -45 -3 -22 -6 -46 -7 -53 -3 -8 4 -243 10 -524 13
-280 3 -526 10 -545 15 l-35 8 40 7 c22 3 103 11 180 18 77 6 210 21 295 34
146 22 161 27 252 74 54 28 104 51 112 51 29 0 27 -21 -6 -50 l-32 -30 59 0
c121 -1 153 -7 209 -40 66 -37 119 -87 109 -103 -4 -7 0 -8 11 -4 10 4 20 7
22 7 24 0 -51 78 -368 385 -46 44 -95 89 -109 101 -15 11 -34 35 -44 54 -20
40 -42 59 -67 60 -9 0 -18 4 -20 9 -3 7 -130 57 -197 76 -13 4 -34 18 -46 31
-12 13 -27 24 -33 24 -6 0 -16 9 -22 20 -6 11 -19 24 -30 30 -21 11 -17 13
-156 -58 -59 -30 -128 -58 -169 -68 -11 -3 -29 -9 -40 -14 -32 -14 -113 -38
-210 -64 -49 -13 -128 -35 -175 -50 -47 -15 -103 -31 -125 -35 -22 -5 -55 -14
-73 -21 -45 -17 -154 0 -123 19 6 4 -17 20 -52 36 -34 16 -64 32 -67 36 -9 11
-117 19 -325 25 -110 3 -225 7 -255 11 -58 5 -123 9 -380 18 -217 7 -320 15
-320 25 0 4 -64 10 -142 13 -275 11 -393 19 -410 28 -9 5 -33 9 -52 9 -20 0
-36 4 -36 10 0 5 -12 9 -27 9 -16 -1 -46 4 -68 10 -22 6 -60 11 -84 11 -41 0
-66 5 -166 33 -22 6 -60 12 -83 14 -24 2 -50 10 -59 18 -17 18 -9 17 -112 5
-115 -15 -137 -9 -161 45 -11 24 -20 62 -20 84 0 21 -5 41 -11 43 -8 3 -12 90
-13 280 -2 168 1 275 7 271 5 -3 7 27 4 76 -3 44 -2 81 2 81 3 0 6 21 6 48 0
26 4 79 8 117 5 39 8 109 8 158 0 52 4 87 10 87 5 0 9 21 9 48 -3 68 11 192
21 192 5 0 9 29 9 64 0 35 7 88 16 117 36 125 39 134 56 133 10 -1 14 4 11 11
-5 14 100 125 117 125 6 0 27 9 47 20 27 14 55 20 98 19 47 -1 54 -3 35 -9
-17 -6 -11 -7 22 -3 28 3 52 1 60 -6 7 -6 36 -30 65 -52 50 -41 52 -43 59
-106 3 -36 4 -275 1 -532 -7 -552 -20 -718 -89 -1091 -17 -91 -31 -172 -32
-180 -1 -13 24 -15 159 -17 180 -3 432 -22 765 -58 281 -30 517 -52 640 -60
349 -21 681 -35 840 -35 l186 0 16 27 c9 16 50 65 90 110 105 117 118 133 118
149 0 8 4 14 9 14 14 0 71 142 81 203 15 93 -8 179 -81 310 -12 21 -34 50 -49
66 -16 15 -37 44 -48 64 -14 27 -22 33 -30 25 -9 -9 -12 -7 -12 10 0 24 -15
30 -23 10 -3 -7 -6 -4 -6 7 -1 24 -79 117 -92 109 -5 -3 -9 0 -9 5 0 6 -6 11
-14 11 -13 0 -13 4 -1 28 14 26 14 27 -15 35 -17 4 -30 13 -30 20 0 7 30 43
66 80 82 86 151 191 198 302 20 48 36 91 36 96 0 5 4 9 9 9 4 0 20 -42 34 -92
49 -172 195 -773 202 -828 8 -64 56 -224 122 -400 40 -109 99 -240 107 -240 2
0 34 11 72 25 41 15 90 25 123 25 45 0 58 4 77 26 29 30 29 31 4 44 -14 8 -26
8 -40 0 -20 -11 -30 3 -10 15 14 8 13 72 -1 77 -6 2 -13 19 -15 38 -2 19 -11
40 -20 47 -10 7 -13 19 -10 31 4 11 -1 29 -13 43 -10 13 -25 45 -32 69 -7 25
-19 50 -25 55 -7 6 -23 53 -35 105 -13 52 -31 102 -40 111 -12 12 -14 19 -6
22 9 3 9 7 1 18 -7 8 -17 30 -22 49 -6 19 -16 51 -23 70 -6 19 -20 59 -31 88
-22 64 -57 157 -73 197 -7 17 -25 71 -41 120 -16 50 -32 92 -36 93 -5 2 -8 13
-8 23 0 11 -8 41 -18 67 -20 50 -53 147 -103 302 -17 52 -45 133 -61 180 -34
95 -60 194 -60 227 0 13 -4 20 -9 18 -7 -5 -51 119 -54 150 -3 33 -18 91 -25
95 -4 3 -19 52 -34 110 -14 58 -30 106 -36 108 -5 2 -10 16 -10 31 0 15 -9 54
-21 87 -11 32 -30 88 -41 124 -11 36 -24 74 -28 85 -36 98 -47 156 -56 295 -5
83 -3 100 15 133 11 21 17 45 15 52 -3 7 0 16 5 20 8 4 9 30 5 76 -5 58 -4 68
9 64 10 -5 14 0 13 17 -2 24 37 66 109 117 41 29 242 110 353 142 35 10 91 35
125 56 67 42 146 78 188 87 14 3 30 16 36 28 13 28 56 120 62 132 2 5 -1 6 -8
2 -8 -5 -8 0 -1 20 6 15 12 59 13 98 l2 71 -52 10 c-28 6 -55 13 -59 18 -4 4
-15 7 -25 7 -19 0 -31 23 -23 44 3 8 20 22 39 30 26 13 34 24 40 53 9 52 29
80 68 96 17 8 47 29 66 46 41 38 60 37 179 -10 42 -17 137 -48 211 -70 146
-42 180 -60 196 -104 12 -33 -12 -80 -141 -278 -120 -181 -141 -219 -175 -306
-32 -82 -69 -124 -142 -160 -23 -12 -58 -30 -77 -42 -27 -16 -46 -19 -83 -15
-38 4 -64 -1 -123 -24 -80 -32 -222 -116 -267 -159 -21 -20 -27 -21 -21 -7 6
15 2 14 -18 -6 -14 -12 -41 -34 -61 -48 -20 -15 -32 -30 -29 -39 4 -10 -1 -12
-19 -7 -13 3 -18 3 -11 0 10 -5 10 -9 1 -20 -6 -8 -8 -14 -4 -14 4 0 -13 -20
-38 -44 -73 -70 -75 -119 -16 -321 11 -38 36 -110 56 -160 80 -199 350 -750
394 -805 l20 -25 -6 25 c-6 24 -5 23 15 -5 l21 -30 -6 30 c-5 23 -4 26 4 15 9
-13 11 -11 11 6 0 15 8 24 28 29 15 4 22 9 15 12 -9 3 -8 9 5 22 36 36 132 54
132 24 0 -8 5 -11 11 -8 6 4 8 14 4 23 -3 9 -3 13 1 9 9 -9 33 23 34 46 0 10
4 16 9 13 5 -3 22 1 37 9 16 8 35 15 42 15 25 0 77 33 106 66 17 21 38 34 52
34 17 0 24 6 24 20 0 11 3 20 8 20 4 0 22 14 39 30 31 30 34 30 62 16 24 -13
30 -13 34 -2 3 7 -5 19 -17 25 -13 7 -27 30 -35 56 -7 24 -21 60 -32 79 -17
33 -17 40 3 37 4 0 9 8 13 18 6 20 35 37 35 21 0 -20 39 -9 70 20 l33 31 23
-22 c12 -11 32 -43 44 -71 20 -48 23 -49 58 -46 31 3 37 0 42 -22 4 -17 8 -21
14 -12 4 6 25 12 47 12 32 0 39 4 39 19 0 10 -7 21 -15 25 -8 3 -15 10 -15 16
0 6 5 8 10 5 6 -3 10 -2 10 4 0 5 -5 11 -12 13 -8 3 -7 11 4 29 9 13 19 36 22
52 6 26 5 27 -20 21 -22 -6 -25 -4 -22 12 3 16 12 19 63 18 33 -1 50 1 37 3
-12 2 -35 16 -50 30 -26 24 -26 25 -7 39 23 17 36 18 32 3 -6 -28 25 -17 44
15 11 19 29 38 40 41 10 4 19 11 19 17 0 5 -7 7 -16 4 -8 -3 -13 -2 -10 3 3 5
17 11 31 13 13 3 22 1 19 -3 -3 -5 -2 -9 3 -9 12 0 40 20 29 20 -6 0 -2 6 9
13 14 11 16 21 11 43 -17 66 -19 97 -7 89 7 -4 10 -13 7 -21 -3 -8 1 -14 9
-14 17 0 20 35 5 45 -6 4 -8 11 -4 16 3 5 10 7 15 4 5 -4 9 5 9 19 0 14 4 27
9 31 12 7 10 48 -2 56 -12 9 1 31 14 24 5 -4 9 -15 9 -25 0 -20 69 -80 93 -80
30 0 86 -30 112 -62 21 -25 26 -28 21 -11 -4 13 -2 26 6 34 11 9 7 19 -22 49
-19 21 -46 41 -60 45 -14 4 -33 15 -44 24 -10 9 -20 14 -23 12 -3 -1 -15 6
-28 17 -13 11 -27 17 -31 14 -4 -4 2 6 13 21 12 15 25 41 28 57 4 17 13 30 21
30 9 0 12 -5 8 -12 -4 -6 -3 -8 4 -5 19 12 40 -4 46 -34 7 -39 30 -27 24 12
-4 27 -2 29 26 29 l30 0 -43 44 c-26 27 -39 46 -32 50 6 4 11 20 11 37 0 16 5
30 10 30 19 3 25 5 49 18 17 9 26 10 34 2 6 -6 20 -11 32 -11 11 0 43 -12 70
-25 51 -25 155 -35 155 -16 0 17 -50 65 -51 50 -1 -8 -5 2 -8 21 -4 19 -4 49
0 67 4 17 2 36 -3 41 -6 6 -6 12 1 16 5 4 8 13 4 21 -3 11 2 15 18 15 18 0 20
3 10 9 -11 7 -10 10 3 18 9 5 18 22 20 38 2 16 8 31 14 33 6 2 16 19 23 39 11
33 10 37 -12 54 -13 10 -31 16 -41 13 -25 -7 -32 13 -8 26 14 8 26 8 40 0 16
-9 22 -8 26 5 9 23 -3 45 -26 45 -11 0 -20 6 -20 13 0 10 24 13 93 14 138 0
237 7 229 15 -4 4 -36 9 -71 10 -34 1 -65 6 -67 10 -3 5 -29 8 -57 9 -50 1
-51 1 -19 10 41 12 34 24 -20 34 -34 7 -38 9 -18 12 56 8 68 13 66 29 0 9 5
19 12 21 9 3 12 -2 10 -13 -3 -17 3 -19 50 -16 44 2 62 9 101 41 l48 38 -75 2
c-43 1 -89 8 -106 16 -16 9 -48 18 -70 22 -37 6 -40 5 -27 -10 18 -23 3 -21
-39 4 -51 31 -82 62 -70 69 6 4 -3 21 -22 41 -58 62 -102 179 -67 179 14 0 39
26 39 40 0 6 -12 9 -26 8 -22 -2 -27 1 -29 21 -1 16 4 25 17 29 10 2 18 11 18
18 0 8 5 14 10 14 6 0 10 10 10 23 0 13 5 28 12 35 9 9 9 12 0 12 -7 0 -12 7
-12 15 0 8 -6 15 -12 15 -9 0 -10 3 -2 8 13 9 25 52 14 52 -12 0 -20 43 -10
55 5 6 3 18 -6 29 -8 11 -14 41 -14 68 0 47 0 48 33 48 29 1 30 2 14 14 -10 8
-14 16 -10 18 4 3 2 3 -5 2 -17 -5 -102 18 -102 27 0 6 54 21 85 24 16 2 59
26 77 45 16 17 15 18 -5 28 -12 6 -16 11 -9 11 24 2 11 21 -14 21 -50 0 -104
22 -104 42 0 10 -5 18 -11 18 -6 0 -9 -7 -6 -14 4 -10 1 -13 -8 -9 -8 3 -13 9
-10 14 3 4 -13 18 -36 29 -31 16 -40 26 -36 40 7 26 -34 58 -83 66 -29 5 -53
19 -87 53 -35 34 -49 42 -51 30 -2 -9 -14 -22 -27 -29 -37 -20 -32 -59 15
-118 21 -28 51 -59 65 -69 14 -10 40 -30 56 -46 l31 -27 -33 4 c-19 3 -38 5
-43 5 -5 1 -35 28 -67 62 -63 66 -84 112 -75 162 5 26 2 36 -18 50 -25 19 -25
46 -2 77 7 8 18 28 25 44 12 29 56 90 94 131 41 44 72 127 72 194 0 42 -5 66
-13 69 -7 2 -10 8 -6 13 3 5 2 9 -3 9 -4 0 -14 14 -22 31 -10 24 -16 28 -23
18 -6 -9 -7 -2 -3 21 l6 35 -24 -25 c-47 -50 -65 -62 -73 -49 -4 7 -3 10 3 6
6 -4 20 8 32 26 11 17 21 28 21 22 0 -5 9 8 20 30 11 21 18 40 16 42 -4 5 -81
-75 -103 -107 -18 -26 -40 -26 -48 0 -3 11 -13 20 -20 20 -9 0 -12 6 -9 15 4
8 1 15 -5 15 -6 0 -16 11 -21 25 -5 14 -16 25 -24 25 -9 0 -12 7 -9 20 4 14 0
20 -11 20 -10 0 -14 5 -10 11 3 6 2 14 -4 18 -7 4 -8 12 -2 21 17 27 117 -45
134 -96 4 -11 13 -27 21 -37 13 -18 16 -16 52 24 21 23 38 45 38 48 0 4 -26
30 -58 59 -56 51 -60 53 -81 38 -15 -9 -42 -14 -79 -12 -32 2 -57 -1 -57 -6 0
-4 -10 -8 -21 -8 -20 0 -21 1 -5 25 16 25 16 25 -2 14 -14 -9 -36 -8 -96 5
-87 18 -107 20 -90 8 6 -4 18 -27 28 -51 10 -27 37 -63 67 -89 57 -53 66 -76
12 -35 -25 20 -38 24 -41 15 -3 -10 -7 -10 -18 -1 -8 6 -14 8 -14 3 0 -5 22
-28 49 -51 27 -24 60 -57 73 -75 l23 -33 -50 37 c-53 38 -105 58 -105 40 0 -6
8 -16 18 -21 30 -18 8 -12 -37 9 -23 12 -59 36 -80 55 -21 19 -41 35 -45 35
-12 0 -138 64 -208 105 -39 23 -66 45 -63 52 5 15 -29 50 -57 59 -10 3 -18 9
-18 14 0 14 78 -9 142 -41 33 -17 62 -28 65 -26 6 7 -54 51 -103 76 -23 11
-48 26 -55 33 -8 7 -26 19 -42 27 -20 11 -24 17 -15 23 7 4 9 8 3 9 -24 3 -31
6 -57 19 -34 16 -37 30 -5 23 16 -3 18 -2 9 5 -11 7 -9 11 9 15 14 4 45 -5 83
-22 34 -16 78 -34 100 -41 27 -9 35 -15 25 -21 -11 -7 -10 -11 6 -23 32 -25
71 -35 86 -24 11 8 10 9 -3 4 -17 -5 -22 3 -19 30 1 6 -19 21 -44 33 -43 21
-63 40 -29 27 23 -9 50 14 32 26 -11 8 -11 10 0 15 22 9 -17 43 -52 44 l-31 2
28 4 c23 4 26 7 16 19 -13 16 -36 19 -41 5 -1 -4 -12 -5 -23 0 -19 7 -19 8 1
8 25 1 42 31 19 31 -8 0 -15 5 -15 10 0 6 -10 10 -22 10 -27 0 -21 5 15 14 19
4 26 3 22 -4 -6 -9 27 -16 50 -10 17 5 129 0 150 -6 14 -4 10 3 -14 25 -35 30
-107 54 -152 50 -13 -1 -42 -1 -64 0 l-40 1 30 20 30 21 -30 -7 c-16 -4 -43
-12 -60 -19 -45 -20 -84 -29 -65 -16 8 6 23 11 33 11 9 0 17 5 17 10 0 6 6 10
13 10 6 0 26 9 42 20 l30 20 -32 12 c-30 11 -45 28 -25 28 5 0 19 9 31 19 26
23 20 41 -12 41 -20 0 -20 2 8 25 l30 24 -50 -14 c-50 -15 -50 -13 2 23 16 11
15 12 -12 7 -21 -4 -26 -3 -15 4 8 6 11 13 7 17 -4 4 0 12 9 18 20 15 8 46
-17 46 -10 0 -19 5 -19 10 0 6 -11 10 -24 10 -19 0 -29 -10 -46 -47 -20 -42
-57 -96 -102 -147 -20 -22 -22 -18 -8 18 12 34 3 33 -40 -5 -38 -33 -49 -26
-27 18 8 15 17 46 20 68 4 22 4 34 1 28 -11 -24 -31 -14 -26 12 2 15 0 25 -7
25 -6 0 -11 -4 -11 -10 0 -5 -4 -10 -10 -10 -5 0 -10 21 -11 48 l-1 47 -21
-45 -22 -45 -5 55 c-3 30 -11 64 -17 75 -7 11 -21 81 -33 155 -12 74 -23 149
-26 165 -3 17 -20 55 -39 87 -19 31 -35 60 -35 64 0 16 71 -62 102 -113 48
-78 63 -64 22 21 -16 34 -18 50 -4 41 6 -3 10 -3 10 2 0 12 -128 128 -195 176
-55 40 -62 49 -79 105 -10 33 -21 62 -26 64 -4 2 -20 28 -35 58 -15 30 -45 81
-66 112 -21 32 -36 64 -33 71 3 9 -6 19 -25 27 -17 7 -33 21 -36 31 -4 10 -17
22 -31 25 -13 3 -24 13 -24 21 0 8 -4 12 -9 9 -5 -4 -11 -2 -13 2 -6 14 -131
70 -193 86 -39 10 -101 15 -175 14 -63 0 -119 1 -125 2 -5 2 -17 1 -25 -2 -43
-15 -113 -28 -122 -22 -18 11 -157 -17 -152 -31 3 -8 -11 -16 -40 -24 -55 -14
-77 -15 -58 -2 9 5 0 10 -27 14 -23 3 -63 19 -90 36 -60 39 -149 71 -193 70
-18 0 -56 -6 -84 -14z m264 -67 c62 -30 65 -33 37 -36 -18 -2 -33 2 -41 12 -6
9 -14 16 -17 16 -4 0 -21 9 -39 20 -52 31 -14 23 60 -12z m-53 -27 c37 -16 51
-27 51 -42 0 -18 -5 -20 -31 -15 -16 4 -54 18 -83 33 -39 20 -69 27 -112 27
-33 1 -60 2 -60 4 0 1 10 7 23 12 36 16 157 5 212 -19z m935 -61 c39 -20 53
-34 56 -58 2 -9 -4 -11 -18 -6 -14 4 -18 2 -14 -5 4 -6 1 -11 -8 -11 -10 0
-13 -6 -9 -17 5 -13 2 -15 -13 -10 -18 7 -18 6 1 -9 19 -15 18 -16 -15 -9 -19
3 -47 7 -63 7 -22 1 -26 5 -22 19 6 18 -48 76 -83 91 -12 5 -8 7 13 8 l30 2
-30 8 c-22 5 -7 8 53 9 65 1 91 -3 122 -19z m-1049 -35 l29 -16 -60 -47 c-33
-26 -85 -67 -115 -91 -31 -24 -59 -41 -63 -37 -4 5 7 19 23 32 39 31 31 30
-41 -5 -70 -35 -112 -41 -148 -22 -25 14 -35 31 -17 31 5 0 12 11 15 24 9 37
110 124 164 141 56 18 169 12 213 -10z m821 -51 c21 -15 38 -31 38 -36 0 -10
-9 -6 -64 34 -49 36 -25 37 26 2z m370 -12 c46 -51 101 -132 90 -132 -5 0 -22
16 -36 35 -15 20 -31 33 -36 30 -9 -6 -70 76 -70 94 0 20 18 11 52 -27z m176
-133 c11 -24 23 -57 26 -74 5 -24 1 -20 -18 18 -25 47 -100 160 -123 185 -7 7
-13 16 -13 20 1 17 109 -110 128 -149z m-2090 113 c27 -18 31 -48 4 -33 -18
10 -66 8 -114 -4 -16 -4 -28 -4 -28 -1 0 12 35 46 47 46 7 0 13 5 13 10 0 13
47 2 78 -18z m112 -13 c0 -6 -4 -7 -10 -4 -5 3 -10 11 -10 16 0 6 5 7 10 4 6
-3 10 -11 10 -16z m-487 -64 c33 -17 52 -31 43 -33 -8 -2 -35 8 -60 23 -26 15
-71 30 -108 35 l-63 9 65 -2 c49 -2 79 -10 123 -32z m347 25 c0 -5 -5 -10 -11
-10 -5 0 -7 5 -4 10 3 6 8 10 11 10 2 0 4 -4 4 -10z m-713 -71 c-45 -37 -97
-110 -103 -147 -3 -15 -9 -31 -15 -36 -5 -6 -9 -19 -9 -30 0 -12 -4 -28 -9
-35 -20 -32 3 76 27 129 26 55 111 150 134 150 7 0 -4 -14 -25 -31z m293 -9
c20 -5 51 -22 69 -38 l34 -28 -37 -54 c-21 -30 -49 -79 -62 -110 -62 -136 -90
-190 -100 -190 -6 0 -19 9 -29 20 -11 12 -21 16 -25 10 -4 -7 -22 -7 -56 1
-27 6 -66 10 -88 10 -21 -1 -49 5 -63 14 -23 16 -23 15 -17 -12 6 -25 5 -27
-10 -13 -8 8 -18 31 -22 50 -6 34 -6 34 10 15 16 -19 16 -18 10 17 -19 115 92
268 225 308 37 12 120 12 161 0z m2484 -17 c11 -13 16 -23 13 -23 -10 0 -37
31 -37 42 0 6 1 9 3 7 1 -2 11 -14 21 -26z m-2373 -230 c-12 -47 -72 -137 -98
-147 -15 -6 -17 -10 54 122 25 46 48 81 50 78 3 -3 0 -27 -6 -53z m-534 -45
c-3 -7 -5 -2 -5 12 0 14 2 19 5 13 2 -7 2 -19 0 -25z m214 -176 c22 -19 25
-48 7 -55 -27 -9 -127 61 -128 89 0 15 95 -12 121 -34z m-171 22 c45 -15 89
-48 78 -59 -4 -5 -54 10 -98 29 -32 14 -51 32 -43 40 8 8 7 8 63 -10z m-258
-29 c8 -18 18 -23 44 -22 19 1 34 5 34 10 0 13 50 -1 77 -23 15 -12 20 -21 13
-25 -7 -5 -5 -12 7 -21 17 -13 17 -15 0 -28 -10 -8 -63 -29 -118 -46 -54 -18
-102 -36 -105 -41 -9 -16 -44 -31 -44 -19 0 5 6 10 14 10 8 0 17 13 20 30 3
17 9 44 12 62 6 31 6 31 -12 13 -19 -18 -19 -18 -23 1 -2 10 -9 23 -17 27 -20
11 -17 50 5 79 25 32 77 28 93 -7z m508 -15 c0 -13 -7 -20 -20 -20 -19 0 -27
20 -13 33 13 14 33 6 33 -13z m-583 -172 c-3 -8 -6 -5 -6 6 -1 11 2 17 5 13 3
-3 4 -12 1 -19z m-46 -36 c-6 -11 -18 -28 -27 -36 -8 -9 -11 -16 -5 -16 5 0
14 8 20 17 5 10 12 15 15 12 12 -12 -27 -51 -45 -46 -11 3 -19 2 -19 -2 0 -4
-30 -20 -67 -35 -66 -27 -118 -61 -180 -120 -30 -27 -33 -28 -33 -9 0 25 50
96 99 142 40 37 110 71 146 71 13 0 28 7 33 16 6 11 17 15 30 12 13 -4 23 0
27 10 3 8 8 12 11 9 3 -3 1 -14 -5 -25z m3659 -69 c0 -57 -5 -53 -13 10 -4 31
-3 46 3 42 6 -3 10 -27 10 -52z m-3469 -38 c0 -6 -8 -12 -18 -14 -10 -2 -29
-12 -42 -22 -32 -26 -46 -24 -21 3 11 12 20 28 20 35 0 15 60 13 61 -2z m-241
-2 c0 -3 -8 -15 -17 -25 -16 -18 -16 -18 0 -12 9 3 17 2 17 -3 0 -18 -32 -53
-82 -89 -29 -21 -68 -51 -86 -66 -39 -33 -52 -35 -52 -9 0 11 -4 23 -10 26
-19 12 -10 32 37 78 60 60 193 129 193 100z m224 -88 c-6 -16 -24 -21 -24 -7
0 11 11 22 21 22 5 0 6 -7 3 -15z m-434 -19 c0 -2 -12 -11 -27 -20 l-28 -17
24 20 c23 21 31 25 31 17z m170 -25 c0 -11 -16 -24 -63 -50 -54 -30 -54 -26
-2 19 45 39 65 49 65 31z m-235 -31 c-3 -5 -10 -10 -16 -10 -5 0 -9 5 -9 10 0
6 7 10 16 10 8 0 12 -4 9 -10z m235 -21 c0 -5 -7 -9 -15 -9 -15 0 -20 12 -9
23 8 8 24 -1 24 -14z m-220 -13 c0 -3 -4 -8 -10 -11 -5 -3 -10 -1 -10 4 0 6 5
11 10 11 6 0 10 -2 10 -4z m190 -14 c0 -10 -41 -35 -47 -28 -7 7 20 35 35 36
6 0 12 -3 12 -8z m-192 -32 c20 -16 27 -18 34 -8 5 9 8 8 8 -5 0 -11 9 -21 20
-24 24 -6 24 -6 4 -49 -29 -62 -80 -54 -87 14 l-4 37 -1 -42 c-2 -54 -22 -57
-22 -4 0 43 10 101 17 101 3 0 16 -9 31 -20z m207 -50 c4 -6 -5 -10 -20 -10
-15 0 -24 4 -20 10 3 6 12 10 20 10 8 0 17 -4 20 -10z m-63 -42 c-9 -9 -42 -1
-42 12 0 4 12 5 26 2 15 -3 22 -8 16 -14z m4228 -38 c11 -7 1 -9 -35 -9 -40 1
-45 3 -25 9 35 11 43 11 60 0z m-140 -14 c0 -2 -7 -7 -16 -10 -8 -3 -12 -2 -9
4 6 10 25 14 25 6z m-4472 -55 c38 -22 60 -50 30 -38 -7 3 -33 13 -58 22 -53
21 -72 34 -65 45 7 11 41 0 93 -29z m3567 -45 c90 -8 179 -28 232 -52 28 -13
56 -24 62 -24 5 0 16 -6 23 -13 7 -7 36 -26 63 -42 28 -16 53 -34 57 -40 3 -5
30 -41 59 -80 94 -126 191 -330 244 -512 27 -91 56 -315 76 -575 7 -93 16
-168 20 -168 14 0 47 -69 43 -87 -3 -10 6 -33 21 -52 27 -38 33 -92 14 -134
-8 -19 -8 -40 4 -90 l15 -65 -34 -32 c-18 -18 -57 -41 -86 -51 -52 -17 -53
-18 -79 -86 -36 -95 -63 -146 -95 -174 -68 -61 -132 -130 -184 -199 -14 -18
-31 -39 -37 -46 -7 -7 -13 -15 -13 -19 0 -3 -17 -32 -39 -63 -21 -31 -45 -70
-54 -87 -8 -16 -24 -39 -34 -50 -10 -11 -34 -38 -53 -60 -74 -84 -225 -219
-299 -267 -76 -50 -76 -50 -142 -45 -38 3 -83 14 -104 26 -47 25 -121 113
-129 153 -15 78 -1 94 119 133 84 27 166 68 190 95 16 18 12 19 -92 22 -13 0
-20 4 -17 9 3 5 -2 9 -11 9 -9 0 -19 9 -22 20 -6 24 -22 26 -38 3 -11 -15 -15
-14 -43 16 -17 19 -33 42 -35 52 -4 16 1 19 38 19 91 0 452 96 433 115 -2 3
-29 -4 -59 -14 -42 -15 -71 -18 -131 -14 -43 3 -78 10 -78 14 0 5 -15 9 -32 9
-25 0 -29 3 -18 10 13 8 13 10 -2 10 -9 0 -18 3 -20 8 -5 11 -179 53 -221 52
-22 0 -36 4 -32 10 10 16 128 78 172 89 25 7 52 24 70 44 33 38 60 51 77 38 6
-5 26 -12 44 -16 40 -8 54 15 27 45 -24 26 -65 25 -111 -2 l-36 -21 6 21 c5
14 3 22 -5 22 -6 0 -35 25 -65 56 -39 42 -55 68 -62 101 -8 36 -7 46 4 50 13
5 13 8 1 22 -7 9 -14 27 -15 41 -1 14 -6 26 -12 28 -5 2 -8 8 -4 13 3 5 -6 19
-19 31 -37 35 -52 69 -36 79 7 4 10 12 5 16 -5 4 -11 2 -13 -4 -3 -7 -11 -13
-19 -13 -8 0 -11 6 -8 15 4 9 0 15 -7 16 -8 0 -4 4 9 9 28 12 28 26 0 34 -22
5 -22 6 -4 19 16 11 18 27 17 113 -1 138 -28 318 -57 381 -13 28 -24 55 -24
59 0 4 -12 23 -27 43 -24 30 -27 44 -25 92 3 62 -24 151 -39 127 -7 -10 -9 -9
-9 4 0 11 -11 20 -27 24 -16 4 -33 11 -40 16 -7 5 -13 4 -15 -4 -3 -9 -11 -9
-36 1 -18 7 -32 17 -32 21 0 3 30 56 67 116 43 71 76 141 95 199 34 109 68
257 68 301 0 17 7 37 15 44 8 7 15 25 15 41 0 15 5 31 11 35 28 17 398 24 564
10z m-3275 -86 c0 -5 -7 -10 -15 -10 -8 0 -15 5 -15 10 0 6 7 10 15 10 8 0 15
-4 15 -10z m-435 -59 c-3 -5 -1 -12 3 -15 5 -3 5 -27 -1 -56 -5 -27 -14 -47
-19 -44 -5 3 -7 12 -4 19 2 7 1 30 -4 51 -10 42 -6 54 16 54 8 0 13 -4 9 -9z
m129 -30 c9 -14 -2 -35 -24 -49 -19 -11 -20 -10 -20 33 0 42 2 45 19 35 11 -5
22 -14 25 -19z m4526 -11 c13 -9 13 -10 0 -9 -8 1 -26 5 -40 9 l-25 8 25 1
c14 0 32 -4 40 -9z m-4608 -258 c9 -17 9 -25 0 -34 -16 -16 -59 25 -83 80 -24
55 -24 54 6 46 24 -6 25 -4 20 19 -4 14 -3 31 1 38 4 8 15 -15 26 -57 10 -38
24 -79 30 -92z m4705 102 c-3 -3 -12 -4 -19 -1 -8 3 -5 6 6 6 11 1 17 -2 13
-5z m967 -358 c-6 -15 -24 -23 -24 -11 0 8 24 34 28 30 1 -1 0 -10 -4 -19z
m-5699 4 c-3 -5 -11 -10 -16 -10 -6 0 -7 5 -4 10 3 6 11 10 16 10 6 0 7 -4 4
-10z m5729 -106 l-19 -27 -6 29 c-3 16 -8 36 -10 44 -2 9 2 14 9 12 8 -1 12 3
9 10 -2 7 1 22 6 33 10 18 12 14 20 -26 7 -39 6 -52 -9 -75z m-5684 76 c0 -5
-5 -10 -11 -10 -5 0 -7 5 -4 10 3 6 8 10 11 10 2 0 4 -4 4 -10z m-97 -30 c-6
-24 -33 -49 -33 -31 0 18 19 51 29 51 5 0 7 -9 4 -20z m-283 -40 c0 -5 -5 -10
-11 -10 -5 0 -7 5 -4 10 3 6 8 10 11 10 2 0 4 -4 4 -10z m5941 -3 c-5 -5 -17
-5 -28 2 -16 9 -15 10 9 9 16 -2 24 -6 19 -11z m79 -39 c0 -12 -8 -18 -24 -18
-13 0 -33 -3 -43 -6 -17 -5 -17 -5 0 9 9 8 17 19 17 25 0 6 8 15 17 21 20 11
33 -2 33 -31z m-6040 -85 c24 -21 25 -42 4 -69 -15 -18 -15 -18 -9 9 4 20 2
27 -10 27 -9 0 -15 9 -15 25 0 30 3 30 30 8z m6049 -4 c-22 -14 -33 -10 -19 6
7 8 17 12 22 9 6 -4 5 -10 -3 -15z m-5849 -28 c0 -10 -24 -21 -46 -21 -9 0
-12 5 -9 10 4 6 10 8 15 5 5 -3 11 -1 15 5 8 12 25 13 25 1z m-118 -49 c-5
-15 26 -14 108 3 15 3 9 -2 -16 -15 -22 -10 -60 -22 -84 -26 -37 -6 -42 -5
-37 9 4 11 2 14 -9 10 -17 -6 -17 -2 -3 31 10 20 15 23 29 14 10 -7 15 -18 12
-26z m39 21 c13 -16 12 -17 -3 -4 -10 7 -18 15 -18 17 0 8 8 3 21 -13z m259 2
c0 -10 -63 -65 -68 -60 -3 3 10 19 29 35 36 31 39 33 39 25z m-120 -15 c-8 -5
-19 -10 -25 -10 -5 0 -3 5 5 10 8 5 20 10 25 10 6 0 3 -5 -5 -10z m-32 -37
c-26 -6 -22 -23 5 -24 18 -1 18 -2 4 -6 -11 -3 -16 -11 -13 -19 6 -15 -47 -48
-66 -42 -6 2 2 11 18 19 40 19 44 49 7 49 -21 0 -24 -3 -14 -9 12 -8 9 -11
-12 -16 -14 -4 -26 -10 -25 -14 2 -19 -4 -20 -24 -1 -19 18 -20 22 -8 30 8 5
22 10 31 10 9 0 32 7 50 15 19 8 41 14 49 13 10 0 10 -2 -2 -5z m-170 -61 c-5
-24 -48 -29 -48 -5 0 13 8 19 26 21 19 1 25 -2 22 -16z m5067 -55 c48 -25 75
-83 74 -154 l-1 -48 -9 40 c-15 66 -41 115 -63 121 -12 3 -46 4 -76 2 -53 -3
-55 -2 -58 25 -3 21 2 29 20 36 23 8 75 -2 113 -22z m-2017 -33 c52 -26 122
-95 122 -121 0 -7 6 -13 13 -14 9 0 9 -2 0 -5 -8 -4 -6 -11 8 -25 10 -10 19
-27 19 -36 0 -15 -4 -13 -20 7 -11 14 -25 36 -31 50 -7 14 -28 37 -46 50 -19
14 -44 33 -54 43 -11 10 -24 15 -29 12 -6 -4 -10 -2 -10 4 0 5 -13 12 -29 16
-28 6 -46 27 -34 39 12 12 40 6 91 -20z m2819 -121 c-3 -10 -5 -2 -5 17 0 19
2 27 5 18 2 -10 2 -26 0 -35z m-3057 13 c0 -2 -7 -21 -16 -42 -24 -57 -15
-141 20 -194 31 -48 76 -70 138 -70 96 0 153 36 190 118 11 23 23 40 28 37 10
-6 40 -92 40 -116 0 -24 16 -32 40 -19 17 9 20 8 18 -7 -3 -30 23 -85 38 -79
7 3 16 1 19 -4 4 -6 14 -10 23 -10 10 0 25 -9 35 -20 9 -11 12 -20 6 -20 -6 0
-8 -9 -4 -20 8 -25 -12 -27 -32 -2 -13 15 -13 15 -3 -5 5 -12 15 -25 20 -28
15 -9 12 -25 -4 -25 -8 0 -16 8 -19 18 -2 9 -3 -16 -2 -55 1 -58 -1 -73 -13
-73 -10 0 -12 -6 -7 -22 3 -13 6 -27 6 -33 0 -17 -60 -176 -71 -190 -6 -7 -21
-32 -33 -56 -21 -39 -28 -44 -63 -47 -63 -5 -111 15 -118 50 -3 16 -10 27 -15
24 -5 -3 -14 1 -21 9 -7 8 -9 15 -5 15 5 0 0 9 -10 20 -10 11 -25 20 -33 20
-10 0 -12 7 -8 25 4 16 2 25 -5 25 -7 0 -8 5 -3 13 5 6 9 19 8 27 -1 8 -2 21
-3 28 -2 20 -18 14 -24 -9 -3 -12 -10 -18 -17 -14 -6 4 -9 13 -6 21 3 7 1 16
-4 19 -16 10 -11 25 8 26 14 1 14 2 -2 6 -26 7 -44 25 -38 41 2 7 -6 12 -21
12 -14 0 -28 6 -30 13 -4 9 -7 9 -14 0 -6 -9 -9 -1 -10 21 -1 40 -10 59 -27
54 -6 -2 -22 6 -35 19 -21 20 -22 23 -7 23 12 0 16 5 12 15 -6 17 26 37 69 42
17 2 32 8 33 13 2 6 10 10 18 10 8 0 14 10 15 23 0 12 3 17 5 11 6 -15 44 -6
45 10 0 6 4 2 9 -9 8 -19 9 -19 9 3 1 13 4 21 9 19 4 -3 30 1 57 8 l50 14
-110 0 c-102 1 -204 19 -190 33 4 3 -3 9 -14 13 -20 6 -37 39 -33 62 2 6 -2
14 -8 18 -14 9 -13 108 3 128 19 26 107 78 107 63z m2222 -26 c38 -31 73 -104
66 -136 -3 -14 -10 -8 -27 26 -13 25 -36 61 -51 80 -53 69 -49 80 12 30z
m-5372 -3 c0 -2 -13 -16 -30 -32 -36 -35 -40 -26 -5 10 24 23 35 30 35 22z
m6174 -19 c6 -25 56 -87 57 -72 0 5 4 -2 10 -14 5 -13 18 -26 29 -29 11 -3 20
-9 20 -14 0 -5 8 -5 17 -2 13 5 15 2 10 -11 -4 -10 -3 -15 3 -11 6 4 18 -6 26
-22 9 -16 41 -47 72 -71 58 -44 60 -48 16 -32 -24 9 -25 9 -14 -5 43 -52 -120
50 -173 108 -39 43 -80 120 -91 170 -8 32 9 37 18 5z m-2729 -44 c-7 -8 -18
-14 -23 -14 -14 0 -23 30 -16 52 6 19 7 19 29 -2 20 -19 22 -25 10 -36z
m-3391 15 c-10 -12 -32 -30 -48 -42 l-28 -20 11 21 c12 23 73 73 80 67 2 -3
-4 -14 -15 -26z m22 -94 c-11 -8 -24 -15 -30 -15 -5 0 -1 7 10 15 10 8 24 14
29 14 6 0 1 -6 -9 -14z m3174 -47 c0 -13 -23 -5 -28 10 -2 7 2 10 12 6 9 -3
16 -11 16 -16z m3045 -88 c10 -11 16 -20 13 -20 -3 0 -13 9 -23 20 -10 11 -16
20 -13 20 3 0 13 -9 23 -20z m22 -66 c17 -13 35 -24 40 -24 4 -1 26 -17 48
-36 l40 -36 -47 25 c-70 38 -122 72 -137 91 -12 14 -12 16 5 10 10 -4 33 -18
51 -30z m-6237 -24 c0 -5 -2 -10 -4 -10 -3 0 -8 5 -11 10 -3 6 -1 10 4 10 6 0
11 -4 11 -10z m6250 -32 c0 -6 -6 -5 -15 2 -8 7 -15 14 -15 16 0 2 7 1 15 -2
8 -4 15 -11 15 -16z m-6217 -95 c-3 -18 -9 -33 -13 -33 -5 0 -6 9 -3 21 4 12
0 25 -8 30 -10 6 -10 9 -1 9 6 0 12 8 12 18 1 14 2 15 9 2 5 -8 6 -30 4 -47z
m-73 4 l-1 -32 -15 28 c-8 15 -12 32 -9 37 11 18 25 -1 25 -33z m-30 -126 c0
-11 -4 -9 -15 5 -8 10 -14 39 -14 64 l1 45 14 -50 c7 -27 14 -56 14 -64z m100
58 c0 -5 -4 -9 -10 -9 -5 0 -10 7 -10 16 0 8 5 12 10 9 6 -3 10 -10 10 -16z
m6587 -38 c-4 -37 -2 -53 9 -62 13 -11 13 -14 -3 -23 -10 -6 -31 -11 -48 -11
l-30 -2 -3 64 c-2 63 3 73 27 51 11 -11 12 -9 6 10 -5 19 -3 22 21 22 26 0 27
-1 21 -49z m-6562 -111 c3 -5 1 -10 -4 -10 -6 0 -11 5 -11 10 0 6 2 10 4 10 3
0 8 -4 11 -10z m-60 -20 c3 -5 1 -10 -4 -10 -6 0 -11 5 -11 10 0 6 2 10 4 10
3 0 8 -4 11 -10z m62 -32 c-3 -8 -6 -5 -6 6 -1 11 2 17 5 13 3 -3 4 -12 1 -19z
m-132 -39 c16 -34 20 -38 26 -23 5 15 12 8 33 -36 14 -30 26 -69 26 -87 0 -27
-6 -35 -40 -54 -28 -16 -43 -33 -51 -58 -7 -20 -14 -31 -16 -25 -3 9 -12 9
-32 1 -23 -8 -36 -7 -65 7 -20 9 -35 20 -33 24 15 25 48 155 43 168 -3 8 -2
12 4 9 6 -3 10 3 10 15 0 25 57 113 69 106 4 -3 16 -24 26 -47z m112 19 c-3
-8 -6 -5 -6 6 -1 11 2 17 5 13 3 -3 4 -12 1 -19z m6537 -43 c3 -8 1 -15 -4
-15 -6 0 -10 7 -10 15 0 8 2 15 4 15 2 0 6 -7 10 -15z m-6494 -47 c0 -19 -2
-20 -10 -8 -13 19 -13 30 0 30 6 0 10 -10 10 -22z m3305 -96 c-3 -3 -11 0 -18
7 -9 10 -8 11 6 5 10 -3 15 -9 12 -12z m-3345 -62 c0 -5 -5 -10 -11 -10 -5 0
-7 5 -4 10 3 6 8 10 11 10 2 0 4 -4 4 -10z m20 -67 c-8 -3 -18 -10 -21 -16 -8
-12 -31 1 -24 14 4 5 18 9 33 8 16 0 21 -3 12 -6z m155 -49 c13 -5 14 -8 3
-15 -19 -13 -28 -11 -28 6 0 17 2 18 25 9z m-65 -33 c53 -17 55 -20 58 -56 l3
-37 -38 23 c-51 31 -103 76 -96 83 9 8 11 8 73 -13z m6480 -51 c0 -5 -4 -10
-10 -10 -5 0 -10 5 -10 10 0 6 5 10 10 10 6 0 10 -4 10 -10z m120 -10 c17 -9
18 -13 4 -45 -8 -19 -13 -40 -12 -46 2 -6 -2 -13 -7 -15 -16 -6 -45 68 -33 83
5 7 7 17 3 23 -8 13 21 13 45 0z m-6969 -33 c-10 -9 -11 -8 -5 6 3 10 9 15 12
12 3 -3 0 -11 -7 -18z m6859 -25 c0 -15 -2 -15 -10 -2 -13 20 -13 33 0 25 6
-3 10 -14 10 -23z m-6466 2 c9 -8 16 -18 16 -20 0 -7 -38 15 -45 26 -10 16 12
12 29 -6z m-99 -44 c3 -5 1 -10 -4 -10 -6 0 -11 5 -11 10 0 6 2 10 4 10 3 0 8
-4 11 -10z m6545 -65 c17 -20 -9 -21 -36 0 -19 14 -19 14 2 15 12 0 27 -7 34
-15z m-15 -40 c21 -5 59 -44 50 -53 -3 -3 -14 4 -25 16 -23 24 -45 28 -56 10
-5 -7 -2 -9 8 -5 15 5 38 -9 38 -25 0 -12 -48 2 -88 24 -40 22 -46 22 -38 2 3
-8 2 -12 -4 -9 -6 3 -10 13 -10 21 0 17 32 18 63 3 19 -9 19 -8 -3 12 l-25 22
35 -7 c19 -4 44 -9 55 -11z m-6560 -45 c3 -5 1 -10 -4 -10 -6 0 -11 5 -11 10
0 6 2 10 4 10 3 0 8 -4 11 -10z m6427 -43 c2 -23 -1 -34 -9 -34 -7 0 -13 5
-13 11 0 6 -5 4 -10 -4 -7 -11 -10 -6 -10 20 0 23 3 30 9 21 6 -9 11 -10 15
-2 4 6 4 16 0 23 -4 6 -3 8 3 5 6 -4 13 -22 15 -40z m102 -3 c10 -26 7 -34
-13 -34 -17 0 -31 18 -31 41 0 16 38 10 44 -7z m64 -3 c3 -8 -1 -12 -9 -9 -7
2 -15 10 -17 17 -3 8 1 12 9 9 7 -2 15 -10 17 -17z m-6498 -32 c0 -6 -4 -7
-10 -4 -5 3 -10 11 -10 16 0 6 5 7 10 4 6 -3 10 -11 10 -16z m240 -181 c0 -5
-9 -8 -19 -8 -11 0 -26 -3 -35 -6 -18 -7 -22 16 -5 33 11 11 59 -4 59 -19z
m120 -50 c0 -31 -48 -83 -63 -69 -14 14 31 91 48 85 8 -4 15 -10 15 -16z
m-125 -18 c-3 -5 -11 -10 -16 -10 -6 0 -7 5 -4 10 3 6 11 10 16 10 6 0 7 -4 4
-10z m171 -45 c7 -40 -2 -85 -17 -85 -6 0 -13 9 -16 19 -3 12 -11 17 -19 14
-20 -7 -17 13 8 58 24 44 35 42 44 -6z m5799 5 c8 -13 -5 -61 -16 -54 -12 7
-12 64 0 64 6 0 12 -4 16 -10z m-5937 -144 c-53 -43 -98 -65 -98 -49 0 13 65
74 72 68 3 -3 18 1 34 10 50 26 48 16 -8 -29z m5890 2 c-6 -17 -36 -34 -44
-25 -4 4 1 14 12 22 23 18 37 19 32 3z m-1708 -8 c-8 -5 -19 -10 -25 -10 -5 0
-3 5 5 10 8 5 20 10 25 10 6 0 3 -5 -5 -10z m-3452 -159 c-12 -24 -95 -141
-101 -141 -10 0 29 76 59 116 13 17 21 34 17 38 -4 4 1 4 10 0 10 -3 17 -9 15
-13z m4866 -6 c-4 -8 -8 -15 -10 -15 -2 0 -4 7 -4 15 0 8 4 15 10 15 5 0 7 -7
4 -15z m-319 -385 c3 -5 -1 -10 -9 -10 -9 0 -16 5 -16 10 0 6 4 10 9 10 6 0
13 -4 16 -10z m45 -101 c0 -11 -4 -17 -10 -14 -5 3 -10 13 -10 21 0 8 5 14 10
14 6 0 10 -9 10 -21z m-22 -45 c-4 -3 -12 5 -18 18 -12 22 -12 22 6 6 10 -10
15 -20 12 -24z m186 -90 c4 -9 4 -19 2 -21 -8 -8 -26 8 -26 23 0 19 16 18 24
-2z m-2606 -235 c-10 -5 -18 -14 -18 -20 0 -5 7 -6 18 0 24 12 86 31 79 25 -2
-3 8 -19 24 -37 16 -17 29 -42 29 -55 0 -13 5 -32 10 -43 13 -24 20 -397 8
-421 -5 -11 -5 -18 1 -18 5 0 2 -18 -6 -40 -12 -31 -21 -40 -40 -40 -22 0 -23
-3 -23 -84 l0 -84 -40 -32 c-36 -28 -40 -36 -40 -76 0 -31 -4 -44 -14 -44 -9
0 -17 -15 -21 -40 -5 -30 -11 -40 -25 -40 -17 0 -19 -10 -19 -117 -1 -64 -5
-119 -10 -123 -6 -3 -18 -42 -27 -85 -10 -44 -22 -83 -28 -87 -6 -4 0 -8 14
-9 17 0 20 -3 10 -7 -29 -13 -19 -31 23 -44 29 -9 105 -13 241 -12 187 1 197
0 176 -16 -12 -9 -20 -25 -18 -36 3 -17 -8 -21 -107 -35 l-110 -16 97 3 96 3
10 -29 c6 -15 8 -31 5 -34 -3 -2 2 -15 11 -28 9 -12 16 -29 15 -38 0 -10 -2
-11 -6 -2 -7 17 -33 15 -33 -3 0 -8 5 -15 10 -15 6 0 10 -7 10 -15 0 -8 -4
-15 -10 -15 -5 0 -10 5 -10 10 0 6 -5 10 -11 10 -8 0 -8 -4 1 -15 6 -8 8 -20
4 -27 -5 -7 -10 -22 -11 -33 -6 -38 -26 -65 -49 -65 -13 0 -27 -6 -31 -14 -12
-21 -83 -67 -94 -61 -5 4 -9 -14 -9 -39 0 -33 -4 -46 -14 -46 -8 0 -19 -13
-25 -30 -5 -17 -14 -30 -20 -30 -5 0 -13 -9 -16 -20 -3 -11 -13 -20 -22 -20
-8 0 -28 -9 -44 -21 l-29 -20 -1 23 c-1 19 -3 18 -9 -7 -6 -24 -8 -26 -9 -7 0
12 -5 22 -11 22 -5 0 -10 -10 -11 -22 -1 -22 -1 -22 -9 2 -5 14 -8 18 -9 9 -1
-21 -82 -34 -93 -16 -5 8 -8 5 -8 -8 0 -17 -2 -17 -10 -5 -6 10 -10 11 -10 3
0 -7 -9 -13 -20 -13 -11 0 -20 3 -20 8 0 4 -21 5 -47 3 -44 -4 -46 -5 -18 -12
l30 -7 -35 -2 c-19 -1 -39 -1 -45 0 -35 8 -85 6 -85 -4 0 -8 -2 -8 -8 0 -4 6
-17 10 -29 9 -13 -1 -23 1 -23 5 0 4 -30 5 -66 3 -42 -3 -69 0 -74 7 -3 6 -21
12 -38 13 -18 1 -32 4 -32 7 0 3 -20 12 -44 19 -25 7 -47 19 -50 27 -3 7 -12
11 -19 8 -9 -3 -23 8 -37 31 -16 27 -25 33 -31 24 -6 -10 -10 -9 -15 5 -5 13
-9 15 -15 5 -5 -9 -10 -5 -14 14 -4 15 -13 27 -21 27 -8 0 -14 6 -14 14 0 8
-10 22 -22 30 -15 11 -18 16 -8 16 12 1 11 3 -2 14 -10 7 -18 18 -18 25 0 6
-7 14 -15 17 -8 4 -15 16 -15 29 0 12 -6 28 -14 34 -19 16 -40 97 -31 118 12
26 12 43 0 43 -5 0 -9 -10 -9 -21 1 -11 -1 -17 -5 -14 -3 4 -7 15 -7 26 -3 37
-4 40 -16 33 -8 -5 -9 0 -5 16 3 12 0 31 -6 41 -10 16 -9 22 3 29 13 8 13 11
1 19 -7 5 -10 14 -6 20 4 7 1 18 -5 26 -10 12 -9 15 6 15 16 0 17 2 4 10 -13
9 -13 11 0 20 13 9 13 11 0 21 -12 9 -13 12 -1 16 7 3 9 8 4 12 -6 3 -13 23
-16 44 -4 28 -2 37 8 37 9 0 12 6 9 15 -4 8 -3 23 1 33 12 25 14 43 6 38 -8
-5 -1 137 8 144 11 9 10 60 -1 60 -5 0 0 9 13 20 13 10 20 19 15 20 -5 0 -2 7
5 17 11 13 11 17 2 20 -19 7 -16 23 5 23 14 0 15 2 2 10 -12 8 -12 10 4 16 11
4 21 2 27 -7 7 -12 9 -12 9 1 0 13 1 13 10 0 5 -8 12 -11 16 -7 4 4 15 -7 25
-23 11 -17 24 -30 30 -30 6 0 8 -7 5 -17 -4 -10 -4 -15 -1 -11 4 3 30 -21 58
-54 29 -34 81 -86 117 -117 l65 -55 -80 84 c-113 119 -182 219 -189 274 -6 43
-18 76 -27 70 -5 -3 -9 4 -9 15 0 10 -4 21 -9 23 -5 2 -12 21 -15 43 l-6 40
11 -35 c18 -56 21 -18 4 54 -19 86 -31 215 -18 201 5 -5 15 -41 22 -80 16 -89
58 -213 84 -245 17 -22 19 -22 15 -5 -4 15 0 21 13 22 15 1 18 -3 14 -25 l-5
-27 11 28 c6 15 17 27 25 27 9 0 13 4 10 9 -10 16 18 70 39 73 11 2 29 19 40
40 11 22 28 38 38 38 13 0 17 9 17 40 0 36 3 40 24 40 13 0 26 7 30 15 3 8 14
15 23 15 24 0 143 110 143 132 0 9 5 20 10 23 6 3 10 17 10 30 0 26 21 38 55
29 12 -3 26 -1 29 4 4 6 -2 8 -14 5 -15 -4 -20 0 -20 16 0 11 5 21 11 21 5 0
7 -4 4 -10 -3 -5 -1 -10 4 -10 6 0 11 5 11 10 0 6 8 5 20 -2 11 -7 18 -19 15
-25 -2 -7 0 -13 5 -13 6 0 10 5 10 10 0 7 6 8 16 2 19 -11 101 1 116 16 9 9 8
12 -4 12 -22 0 -32 18 -20 33 5 7 16 31 24 54 l14 42 32 -19 c27 -17 31 -24
28 -52 -3 -18 -8 -41 -11 -50 -4 -10 -3 -18 2 -18 15 0 30 35 38 87 6 45 4 54
-13 69 -30 25 -10 64 43 84 41 15 66 12 86 -12 l19 -21 0 26 c0 15 5 27 10 27
6 0 10 7 10 15 0 14 26 34 45 34 6 0 2 -4 -7 -10z m-161 -25 c2 -6 -3 -11 -12
-11 -8 0 -15 7 -15 15 0 15 22 12 27 -4z m-234 -159 c4 -8 2 -17 -3 -20 -6 -4
-10 3 -10 14 0 25 6 27 13 6z m1162 -92 l7 -28 10 25 c12 33 13 33 37 20 15
-8 27 -8 41 0 16 8 20 8 20 -4 0 -8 -5 -18 -10 -21 -6 -4 -7 -11 -4 -17 5 -7
10 -3 15 10 10 27 30 28 57 5 22 -19 61 -137 127 -385 33 -124 35 -141 24
-180 -21 -78 -127 -281 -172 -330 l-43 -47 -39 13 c-22 8 -44 23 -50 35 -5 11
-14 21 -20 21 -12 1 -46 30 -60 51 -5 9 -22 35 -37 57 -16 23 -28 51 -28 62 0
11 -7 20 -15 20 -8 0 -22 18 -31 40 -15 37 -34 54 -34 30 0 -5 -8 -6 -17 -3
-11 4 -13 8 -5 11 8 2 2 16 -16 40 -16 21 -27 42 -25 49 2 6 -1 14 -6 18 -7 4
-11 -4 -11 -19 0 -14 -4 -26 -9 -26 -4 0 -6 23 -3 50 3 32 1 50 -6 50 -6 0
-22 10 -35 23 -30 27 -34 77 -6 77 12 0 19 7 19 20 0 13 -7 20 -20 20 -26 0
-25 8 5 52 14 20 22 43 19 52 -3 9 3 20 15 28 12 7 21 21 21 30 0 15 9 18 44
18 39 0 56 10 52 31 -2 12 37 49 51 49 7 0 14 8 14 18 1 16 2 16 6 0 5 -22 23
-24 23 -3 0 8 5 15 10 15 6 0 10 -7 10 -15 0 -8 3 -15 8 -15 8 0 32 49 32 67
0 25 28 13 35 -14z m-365 -259 c0 -8 -5 -12 -10 -9 -6 4 -8 11 -5 16 9 14 15
11 15 -7z m-23 -30 c-3 -3 -12 -4 -19 -1 -8 3 -5 6 6 6 11 1 17 -2 13 -5z
m-1557 -478 c0 -2 -7 -7 -16 -10 -8 -3 -12 -2 -9 4 6 10 25 14 25 6z m-1370
-178 c0 -12 38 -10 62 3 15 8 19 8 14 0 -4 -6 -7 -42 -8 -81 0 -38 -4 -70 -8
-70 -4 0 -8 -23 -9 -52 -1 -29 -7 -56 -14 -60 -9 -6 -9 -10 0 -15 13 -9 15
-81 2 -89 -6 -3 -7 -14 -4 -25 4 -11 2 -19 -4 -19 -6 0 -11 -7 -11 -15 0 -8 5
-15 10 -15 6 0 10 -16 10 -35 0 -37 -15 -46 -34 -20 -10 14 -13 14 -34 0 -12
-9 -22 -25 -22 -36 0 -12 -7 -19 -20 -19 -13 0 -18 5 -14 15 4 9 0 15 -9 15
-20 0 -46 32 -30 37 7 2 9 11 6 19 -4 12 1 16 23 13 3 0 12 8 20 18 13 17 15
17 28 1 7 -10 18 -18 24 -18 6 0 12 -6 15 -12 2 -7 7 -10 11 -6 12 10 -17 48
-36 48 -10 0 -18 5 -18 10 0 6 -11 20 -25 32 -25 21 -25 41 -1 32 8 -3 17 -1
21 5 3 6 1 11 -4 11 -22 0 -10 20 12 21 l22 0 -22 9 c-13 6 -23 18 -23 30 0
14 -7 20 -22 20 -20 0 -21 -1 -3 -20 16 -18 16 -20 2 -20 -9 0 -21 9 -27 19
-5 11 -20 22 -32 24 -17 3 -14 5 10 6 20 1 32 6 32 15 0 8 6 16 13 19 13 4
-36 57 -54 57 -15 0 -10 -16 11 -35 20 -19 20 -19 -11 -32 -37 -15 -51 -17
-26 -2 9 5 17 16 17 23 0 18 -31 29 -44 16 -12 -12 -26 -13 -26 -1 0 5 11 12
24 15 13 3 31 17 40 31 9 14 23 25 30 25 8 0 16 9 19 20 3 11 12 20 21 20 9 0
16 5 16 10 0 6 -9 10 -21 10 -15 0 -19 5 -15 15 3 9 0 15 -10 15 -8 0 -12 5
-9 10 3 6 17 10 31 10 21 0 24 -4 19 -20 -9 -28 10 -25 32 4 17 22 53 32 53
14z m3386 -12 c8 -8 11 -17 6 -20 -4 -2 -13 4 -20 15 -14 22 -7 25 14 5z
m-3556 -26 c0 -5 -7 -10 -16 -10 -8 0 -12 5 -9 10 3 6 10 10 16 10 5 0 9 -4 9
-10z m44 -18 c3 -5 -8 -19 -24 -31 -33 -23 -41 -10 -13 21 18 20 29 23 37 10z
m-114 -16 c0 -11 -19 -15 -25 -6 -3 5 1 10 9 10 9 0 16 -2 16 -4z m45 -46 c9
-17 11 -30 5 -30 -5 0 -10 7 -10 15 0 9 -7 18 -15 21 -17 7 -21 24 -5 24 5 0
16 -13 25 -30z m-51 -25 c3 -8 1 -15 -4 -15 -6 0 -10 7 -10 15 0 8 2 15 4 15
2 0 6 -7 10 -15z m-1 -60 c-3 -9 -8 -14 -10 -11 -3 3 -2 9 2 15 9 16 15 13 8
-4z m37 -35 c0 -5 -5 -10 -11 -10 -5 0 -7 5 -4 10 3 6 8 10 11 10 2 0 4 -4 4
-10z m48 -38 c2 -7 -2 -10 -12 -6 -9 3 -16 11 -16 16 0 13 23 5 28 -10z m-38
-32 c12 -8 11 -10 -7 -10 -13 0 -23 5 -23 10 0 13 11 13 30 0z m90 -6 c0 -9
-7 -14 -17 -12 -25 5 -28 28 -4 28 12 0 21 -6 21 -16z m-110 -44 c0 -5 -5 -10
-11 -10 -5 0 -7 5 -4 10 3 6 8 10 11 10 2 0 4 -4 4 -10z m3110 -10 c0 -5 -4
-10 -10 -10 -5 0 -10 5 -10 10 0 6 5 10 10 10 6 0 10 -4 10 -10z m-2996 -16
c21 -21 20 -34 -3 -34 -21 0 -31 17 -23 38 5 15 7 15 26 -4z m-64 -14 c8 -5
12 -11 9 -14 -3 -3 -14 1 -25 9 -21 16 -8 20 16 5z m-30 -14 c0 -11 -19 -15
-25 -6 -3 5 1 10 9 10 9 0 16 -2 16 -4z m68 -34 c2 -7 -2 -10 -12 -6 -9 3 -16
11 -16 16 0 13 23 5 28 -10z m-44 -18 c14 -36 7 -51 -21 -46 l-27 5 24 9 c18
7 21 11 12 20 -14 14 -16 28 -3 28 5 0 12 -7 15 -16z m196 -74 c0 -6 -7 -10
-15 -10 -8 0 -15 2 -15 4 0 2 -3 12 -7 21 -5 15 -3 16 15 6 12 -7 22 -16 22
-21z m-150 0 c0 -11 -6 -20 -13 -20 -19 0 -27 10 -20 26 8 21 33 17 33 -6z
m-57 -26 c8 -8 -3 -34 -14 -34 -5 0 -9 9 -9 20 0 19 11 26 23 14z m100 -1 c8
-7 -11 -33 -24 -33 -5 0 -9 9 -9 20 0 19 20 27 33 13z m77 -8 c0 -8 -7 -15
-15 -15 -8 0 -15 7 -15 15 0 8 7 15 15 15 8 0 15 -7 15 -15z m34 -37 c-1 -18
-3 -35 -3 -37 -1 -2 -7 2 -15 8 -11 9 -15 7 -19 -9 -6 -23 -37 -27 -37 -5 0 9
11 20 24 25 14 5 30 18 36 30 15 28 18 25 14 -12z m-74 -3 c0 -8 -6 -15 -13
-15 -8 0 -14 7 -14 15 0 8 6 15 14 15 7 0 13 -7 13 -15z m-87 -2 c-7 -2 -13
-11 -13 -19 0 -18 -16 -18 -23 0 -7 18 1 26 27 25 12 0 15 -3 9 -6z m40 -51
c-5 -22 -33 -31 -33 -11 0 11 32 41 37 35 1 -1 0 -12 -4 -24z m115 -30 c3 -17
-2 -22 -20 -21 -22 0 -22 1 -3 9 11 5 14 9 8 9 -7 1 -13 8 -13 17 0 23 24 11
28 -14z m-70 -4 c-7 -19 -38 -22 -38 -4 0 10 9 16 21 16 12 0 19 -5 17 -12z
m22 -48 c0 -13 -7 -20 -20 -20 -11 0 -20 -7 -20 -15 0 -8 7 -15 15 -15 8 0 15
-7 15 -15 0 -8 7 -15 15 -15 8 0 15 -6 15 -14 0 -8 7 -16 15 -20 17 -6 21 -46
4 -46 -6 0 -13 9 -16 20 -3 11 -12 20 -19 20 -8 0 -14 5 -14 10 0 22 -38 46
-73 47 -40 1 -46 -7 -20 -28 13 -11 17 -11 20 -1 3 6 14 12 24 12 11 0 18 -4
15 -9 -3 -5 13 -27 35 -50 23 -22 45 -38 50 -35 5 3 9 -2 9 -10 0 -22 -23 -20
-38 4 -7 11 -21 20 -32 20 -13 0 -20 7 -20 20 0 12 -7 20 -16 20 -18 0 -44
-23 -44 -39 0 -6 -7 -11 -15 -11 -20 0 -19 20 3 36 13 10 14 15 5 25 -13 14
-47 4 -38 -11 3 -5 -1 -10 -9 -10 -9 0 -16 7 -16 15 0 8 7 15 16 15 10 0 14 5
10 15 -3 9 1 18 9 21 8 4 15 13 15 20 0 11 4 12 19 4 29 -15 40 -12 34 10 -3
11 -13 20 -22 21 -11 0 -12 2 -3 6 7 3 20 -1 28 -8 12 -10 19 -9 37 9 26 27
27 27 27 2z m47 -25 c-4 -8 -2 -17 3 -20 14 -9 12 -35 -1 -35 -14 0 -38 30
-39 47 0 6 8 14 18 16 9 3 19 5 21 6 2 0 1 -6 -2 -14z m-193 -2 c-5 -5 -12
-12 -15 -16 -3 -5 -9 -2 -12 7 -5 12 0 16 15 16 12 0 17 -3 12 -7z m-624 -23
c0 -5 -5 -10 -11 -10 -5 0 -7 5 -4 10 3 6 8 10 11 10 2 0 4 -4 4 -10z m-90
-10 c13 -8 13 -10 -2 -10 -9 0 -20 5 -23 10 -8 13 5 13 25 0z m-80 -9 c0 -12
-20 -25 -27 -18 -7 7 6 27 18 27 5 0 9 -4 9 -9z m220 -16 c0 -8 -7 -15 -15
-15 -9 0 -12 6 -9 15 4 8 10 15 15 15 5 0 9 -7 9 -15z m540 5 c0 -5 -7 -10
-15 -10 -8 0 -15 5 -15 10 0 6 7 10 15 10 8 0 15 -4 15 -10z m-710 -19 c0 -11
-6 -21 -12 -24 -8 -2 -9 -8 -4 -13 5 -5 11 -4 13 4 8 21 43 14 43 -8 0 -11 6
-20 14 -20 20 0 28 -14 20 -35 -4 -9 -15 -15 -28 -13 -16 2 -21 9 -19 28 1 14
-1 19 -3 13 -8 -18 -41 -16 -48 2 -3 8 -13 15 -23 15 -15 0 -13 -5 9 -25 15
-14 34 -25 42 -25 8 0 16 -6 19 -12 7 -21 -4 -38 -24 -38 -12 0 -19 -7 -19
-20 0 -11 -4 -20 -10 -20 -5 0 -10 7 -10 15 0 8 -4 15 -10 15 -5 0 -10 8 -10
18 0 13 2 14 9 3 6 -10 10 -10 16 -1 9 15 -26 41 -41 29 -6 -5 -13 -6 -17 -3
-7 7 33 104 44 104 5 0 6 7 3 15 -5 11 1 15 20 15 19 0 26 -5 26 -19z m90 10
c0 -5 -9 -11 -20 -14 -13 -3 -20 0 -20 9 0 8 9 14 20 14 11 0 20 -4 20 -9z
m133 -8 c-7 -2 -13 -10 -13 -16 0 -18 44 -77 58 -77 15 0 16 -12 1 -27 -15
-15 -61 7 -54 26 3 7 -3 20 -12 27 -24 18 -38 18 -24 0 10 -11 8 -17 -6 -24
-16 -10 -16 -11 8 -21 30 -11 46 -41 27 -52 -15 -9 -38 8 -38 27 0 19 -39 18
-46 -1 -4 -8 -17 -15 -31 -15 -21 0 -23 -3 -14 -14 17 -20 -3 -30 -31 -15
l-22 12 22 17 c12 10 22 23 22 29 0 6 5 12 10 12 6 1 15 3 20 4 6 1 12 3 15 4
12 2 -17 41 -30 41 -8 0 -15 9 -15 20 0 13 7 20 19 20 11 0 21 5 23 12 2 6 10
8 16 4 17 -10 15 -26 -3 -26 -8 0 -15 -7 -15 -15 0 -22 10 -19 59 20 24 19 49
35 55 34 7 0 6 -3 -1 -6z m451 -8 c3 -8 1 -15 -4 -15 -6 0 -10 7 -10 15 0 8 2
15 4 15 2 0 6 -7 10 -15z m-393 -34 c29 -30 37 -51 19 -51 -6 0 -13 7 -16 15
-4 8 -10 12 -15 9 -5 -3 -9 2 -9 11 0 8 -7 18 -15 21 -8 4 -15 10 -15 15 0 17
22 9 51 -20z m39 19 c0 -5 -7 -10 -16 -10 -8 0 -12 5 -9 10 3 6 10 10 16 10 5
0 9 -4 9 -10z m250 -15 c0 -8 -4 -15 -8 -15 -5 0 -9 7 -9 15 0 8 4 15 9 15 4
0 8 -7 8 -15z m135 -6 c11 -17 -1 -21 -15 -4 -8 9 -8 15 -2 15 6 0 14 -5 17
-11z m125 -44 c0 -8 -4 -15 -9 -15 -5 0 -11 7 -15 15 -3 9 0 15 9 15 8 0 15
-7 15 -15z m-532 -67 c-6 -18 -28 -21 -28 -4 0 9 7 16 16 16 9 0 14 -5 12 -12z
m-144 -14 c35 -13 11 -44 -35 -44 -23 0 -24 4 -2 30 20 23 17 22 37 14z m-220
-20 c4 -9 4 -19 2 -21 -8 -8 -26 8 -26 23 0 19 16 18 24 -2z m324 -1 c-2 -10
-13 -19 -26 -21 -24 -4 -29 7 -10 26 18 18 40 15 36 -5z m-228 -11 c0 -11 -8
-18 -20 -19 -22 -2 -23 -1 -14 21 8 22 34 20 34 -2z m4203 -879 c-13 -2 -35
-2 -50 0 -16 2 -5 4 22 4 28 0 40 -2 28 -4z m-632 -33 c273 -17 333 -20 409
-20 54 -1 69 -4 55 -11 -36 -16 -584 -25 -805 -12 -113 6 -216 12 -229 12 -16
1 -21 5 -15 10 25 26 334 37 585 21z m2696 -226 c1 -5 -1 -15 -6 -23 -7 -10
-13 -11 -30 -2 -26 14 -27 28 -3 34 22 6 35 3 39 -9z"/>
<path d="M4978 9783 c7 -3 16 -2 19 1 4 3 -2 6 -13 5 -11 0 -14 -3 -6 -6z"/>
<path d="M4780 9600 c-9 -6 -10 -10 -3 -10 6 0 15 5 18 10 8 12 4 12 -15 0z"/>
<path d="M4548 9543 c7 -3 16 -2 19 1 4 3 -2 6 -13 5 -11 0 -14 -3 -6 -6z"/>
<path d="M6230 7524 c-63 -12 -135 -25 -160 -28 -76 -10 -193 -52 -212 -76
-20 -24 -23 -65 -8 -104 12 -32 25 -30 189 33 181 69 274 94 361 95 65 1 84
-3 145 -32 39 -18 89 -52 113 -75 40 -38 42 -40 33 -14 -29 77 -103 158 -180
196 -57 29 -151 31 -281 5z"/>
<path d="M6250 7208 c-19 -5 -42 -16 -51 -24 -8 -8 -21 -14 -27 -14 -7 0 -12
-6 -12 -13 0 -7 -13 -26 -30 -42 -32 -30 -42 -59 -12 -33 56 49 179 82 255 69
4 0 7 -12 7 -24 0 -21 -4 -24 -40 -23 -22 1 -40 -2 -40 -7 0 -5 -7 -7 -15 -3
-8 3 -15 1 -15 -5 0 -6 -6 -9 -14 -6 -7 3 -19 0 -25 -6 -6 -6 -11 -7 -11 -2 0
5 -7 0 -15 -11 -11 -14 -15 -16 -15 -4 -1 13 -2 13 -13 0 -19 -23 -97 -61 -90
-44 7 20 -11 18 -29 -3 -51 -61 -88 -174 -87 -264 l0 -54 13 40 c7 22 23 60
35 84 25 49 33 45 45 -22 9 -49 57 -103 104 -115 32 -9 26 -10 -52 -11 -49 -1
-87 -4 -83 -7 5 -5 131 -5 337 0 30 0 61 7 69 14 12 11 15 11 22 0 7 -10 9 -9
9 5 0 20 11 22 28 5 9 -9 12 -7 12 12 0 19 3 21 12 12 18 -18 30 -14 23 7 -5
15 -1 18 20 13 14 -2 25 -1 24 4 -1 5 -1 19 0 32 1 19 5 22 21 17 21 -7 28 9
9 20 -7 5 -5 13 6 25 17 19 13 60 -6 60 -20 0 -7 16 36 44 65 40 99 96 59 96
-8 0 -13 4 -10 9 3 5 -13 8 -37 6 -53 -3 -61 2 -41 23 15 14 12 20 -38 67 -34
32 -73 58 -103 69 -54 18 -178 20 -235 4z m215 -79 c6 -6 6 -9 0 -10 -69 -8
-75 -8 -75 4 0 8 3 17 6 20 8 8 55 -2 69 -14z m45 -23 c0 -3 -4 -8 -10 -11 -5
-3 -10 -1 -10 4 0 6 5 11 10 11 6 0 10 -2 10 -4z m-45 -107 c74 -28 125 -76
125 -119 0 -100 -118 -184 -285 -204 l-50 -6 55 27 c65 34 91 66 97 126 7 58
-11 110 -54 158 l-35 39 45 0 c26 0 71 -9 102 -21z m-97 -94 c2 -16 0 -25 -7
-21 -5 4 -13 1 -16 -4 -5 -8 -13 -6 -26 6 -22 20 -25 44 -7 62 18 18 52 -9 56
-43z m-212 -120 c16 -14 32 -25 37 -25 4 0 7 -7 7 -15 0 -30 -74 -9 -85 24 -5
18 0 41 9 41 2 0 16 -11 32 -25z"/>
<path d="M6167 5844 c-15 -15 -6 -24 24 -24 20 0 29 4 27 13 -5 14 -40 21 -51
11z"/>
<path d="M8320 6233 c1 -18 18 -35 24 -24 4 6 4 16 1 21 -7 12 -25 13 -25 3z"/>
<path d="M4270 2566 c0 -2 8 -10 18 -17 15 -13 16 -12 3 4 -13 16 -21 21 -21
13z"/>
<path d="M5088 2213 c6 -2 18 -2 25 0 6 3 1 5 -13 5 -14 0 -19 -2 -12 -5z"/>
<path d="M5300 2140 c-12 -7 -12 -12 -3 -21 15 -15 26 -7 21 15 -2 11 -7 13
-18 6z"/>
<path d="M5840 3554 c0 -8 5 -12 10 -9 6 4 8 11 5 16 -9 14 -15 11 -15 -7z"/>
<path d="M2443 2595 c-15 -33 -4 -38 27 -13 20 16 21 21 9 29 -20 13 -23 12
-36 -16z"/>
<path d="M2470 2540 c0 -5 5 -10 11 -10 5 0 7 5 4 10 -3 6 -8 10 -11 10 -2 0
-4 -4 -4 -10z"/>
<path d="M2500 2510 c0 -5 5 -10 11 -10 5 0 7 5 4 10 -3 6 -8 10 -11 10 -2 0
-4 -4 -4 -10z"/>
<path d="M2415 2480 c-3 -5 -1 -10 4 -10 6 0 11 5 11 10 0 6 -2 10 -4 10 -3 0
-8 -4 -11 -10z"/>
<path d="M2466 2465 c-16 -12 -17 -15 -4 -15 9 0 18 7 22 15 7 18 6 18 -18 0z"/>
<path d="M2412 2411 c-11 -6 -10 -10 4 -15 20 -8 32 0 18 14 -5 5 -15 5 -22 1z"/>
<path d="M2470 2406 c0 -2 7 -6 15 -10 8 -3 15 -1 15 4 0 6 -7 10 -15 10 -8 0
-15 -2 -15 -4z"/>
<path d="M2470 2350 c0 -9 31 -30 44 -30 4 0 1 9 -6 20 -13 21 -38 27 -38 10z"/>
<path d="M2467 2304 c-9 -10 12 -34 30 -34 19 0 12 34 -8 38 -8 1 -18 0 -22
-4z"/>
<path d="M2426 2272 c-3 -6 8 -15 24 -22 17 -7 30 -17 30 -23 0 -7 4 -7 12 1
10 10 9 15 -2 26 -20 19 -57 29 -64 18z"/>
<path d="M2397 2151 c-16 -17 -16 -19 -2 -25 26 -10 35 -7 35 9 0 8 5 15 10
15 6 0 10 5 10 10 0 16 -34 10 -53 -9z"/>
<path d="M1338 8223 c7 -3 16 -2 19 1 4 3 -2 6 -13 5 -11 0 -14 -3 -6 -6z"/>
<path d="M1320 8191 c0 -5 6 -12 13 -14 6 -3 3 -6 -8 -6 -16 -1 -17 -3 -6 -10
12 -8 12 -13 -3 -35 -9 -14 -21 -26 -26 -26 -6 0 -10 -13 -10 -30 0 -34 -31
-70 -60 -70 -17 0 -20 -7 -21 -42 -2 -63 -1 -87 3 -148 3 -30 1 -62 -3 -71 -9
-18 26 -98 58 -134 20 -23 55 -41 96 -49 25 -6 61 9 93 39 13 13 26 85 14 85
-14 0 -21 68 -9 88 9 14 9 24 1 38 -11 19 -11 19 -12 0 0 -36 -15 -5 -17 37
-3 53 -8 97 -23 172 -15 78 -16 95 -6 123 5 16 4 22 -8 22 -8 0 -18 9 -21 20
-6 20 -45 29 -45 11z"/>
<path d="M7208 8103 c7 -3 16 -2 19 1 4 3 -2 6 -13 5 -11 0 -14 -3 -6 -6z"/>
<path d="M7324 8035 c36 -19 52 -19 32 0 -8 8 -25 15 -38 15 -22 0 -21 -1 6
-15z"/>
<path d="M7370 7976 c0 -21 32 -76 61 -103 34 -32 69 -47 66 -28 -2 12 -127
140 -127 131z"/>
<path d="M522 7959 c-33 -13 -50 -63 -57 -168 -3 -51 -6 -95 -6 -99 -6 -38 4
-64 26 -74 22 -10 29 -8 55 17 16 16 33 38 36 49 4 12 13 28 21 37 11 13 12
26 4 61 -9 40 -8 51 15 98 21 44 23 55 12 65 -18 17 -78 25 -106 14z"/>
<path d="M960 7932 c0 -5 -39 -9 -86 -9 -96 0 -104 -5 -104 -65 0 -20 -5 -58
-11 -85 -11 -46 -10 -52 15 -91 14 -23 26 -47 26 -54 1 -25 26 -46 62 -53 32
-6 39 -3 75 32 47 45 60 79 75 188 16 122 16 129 4 137 -15 10 -56 10 -56 0z"/>
<path d="M7175 7759 c11 -6 41 -24 68 -40 26 -16 47 -25 47 -20 0 13 -75 59
-107 66 -25 6 -26 5 -8 -6z"/>
<path d="M8020 7679 c0 -5 5 -7 10 -4 6 3 10 8 10 11 0 2 -4 4 -10 4 -5 0 -10
-5 -10 -11z"/>
<path d="M220 7585 c0 -8 -6 -15 -14 -15 -7 0 -25 -17 -40 -38 -28 -41 -44
-45 -128 -27 l-38 7 0 -195 c0 -131 5 -217 14 -259 8 -35 17 -80 21 -102 6
-34 9 -38 31 -33 13 2 28 -1 33 -7 5 -6 12 -61 16 -121 8 -129 21 -226 32
-234 5 -3 13 -15 19 -26 6 -11 22 -21 36 -23 21 -3 26 3 37 35 7 21 10 60 7
88 -10 97 -16 136 -21 145 -29 47 -35 295 -8 341 10 16 21 29 26 29 5 0 24 12
43 26 28 22 41 26 76 21 47 -6 58 -18 58 -67 0 -19 14 -88 30 -154 19 -73 30
-144 30 -185 0 -37 4 -71 10 -77 5 -5 12 -36 14 -68 3 -43 10 -64 27 -83 48
-51 96 -51 119 0 8 18 14 35 12 39 -1 3 -2 134 -3 290 0 156 -5 290 -10 300
-7 14 -6 18 5 18 9 0 13 6 10 13 -5 14 22 43 46 49 8 2 21 9 28 15 7 7 25 16
40 19 15 3 36 10 47 14 107 48 195 50 285 7 30 -14 62 -27 70 -29 8 -2 17 -6
20 -10 3 -4 43 -8 89 -9 46 -1 104 -6 130 -11 43 -8 207 1 169 10 -10 2 -18
12 -18 23 0 17 2 18 21 7 61 -37 60 -37 80 -17 19 19 19 20 -1 58 -18 37 -23
40 -72 45 -29 3 -69 5 -88 5 -19 -1 -96 4 -170 10 -74 6 -189 15 -255 20 -69
5 -121 14 -123 20 -3 8 -9 8 -24 0 -11 -6 -27 -7 -36 -3 -25 10 -52 12 -196
18 -72 3 -152 12 -178 20 -28 8 -48 10 -48 4 0 -5 -28 -8 -66 -6 -62 2 -68 5
-110 45 -24 24 -48 43 -54 43 -5 0 -10 7 -10 15 0 8 -4 15 -10 15 -5 0 -10 -7
-10 -15z"/>
<path d="M1790 7385 c0 -17 -16 -20 -25 -5 -3 6 -13 10 -21 10 -8 0 3 -19 28
-45 24 -25 44 -41 46 -35 2 6 -1 17 -7 24 -7 8 -9 25 -5 40 4 16 2 26 -5 26
-6 0 -11 -7 -11 -15z"/>
<path d="M8286 7090 c18 -34 30 -44 39 -31 4 8 -38 61 -50 61 -2 0 3 -13 11
-30z"/>
<path d="M1730 7041 c0 -5 7 -15 17 -22 15 -13 15 -12 4 9 -12 23 -21 28 -21
13z"/>
<path d="M7921 6984 c0 -11 3 -14 6 -6 3 7 2 16 -1 19 -3 4 -6 -2 -5 -13z"/>
<path d="M8465 6980 c7 -12 79 -12 115 0 18 6 4 8 -48 9 -47 1 -71 -3 -67 -9z"/>
<path d="M8540 6952 c0 -13 51 -37 71 -34 10 2 19 -5 22 -15 4 -14 5 -12 6 5
0 13 -5 30 -13 38 -16 16 -40 19 -31 4 3 -5 -1 -10 -9 -10 -9 0 -16 5 -16 10
0 6 -7 10 -15 10 -8 0 -15 -4 -15 -8z"/>
<path d="M8670 6863 c0 -21 -3 -49 -6 -63 -4 -18 -3 -21 4 -10 14 22 22 99 11
106 -5 3 -9 -12 -9 -33z"/>
<path d="M8675 6420 c3 -5 8 -10 11 -10 2 0 4 5 4 10 0 6 -5 10 -11 10 -5 0
-7 -4 -4 -10z"/>
<path d="M8597 6378 c-3 -12 -2 -29 3 -38 5 -9 5 -22 -1 -31 -5 -7 -8 -27 -8
-44 0 -28 1 -28 9 -7 5 12 16 22 25 22 9 0 15 9 14 23 0 21 -1 21 -9 2 -8 -18
-9 -17 -9 6 -1 15 6 29 14 33 8 3 15 16 14 28 0 13 -3 17 -6 11 -2 -7 -12 -13
-20 -13 -13 0 -13 3 -3 15 10 12 10 15 -3 15 -8 0 -17 -10 -20 -22z"/>
<path d="M8674 6375 c4 -15 2 -25 -4 -25 -6 0 -5 -8 2 -20 12 -19 13 -19 20 6
4 15 3 35 -3 46 -14 26 -22 22 -15 -7z"/>
<path d="M215 6376 c-16 -6 -33 -15 -37 -21 -10 -13 -3 -82 10 -116 21 -52 73
-46 102 12 46 88 7 153 -75 125z"/>
<path d="M8656 6253 c-6 -14 -5 -15 5 -6 7 7 10 15 7 18 -3 3 -9 -2 -12 -12z"/>
<path d="M8612 6218 c-7 -7 -12 -9 -12 -4 0 4 -7 1 -15 -8 -17 -17 -19 -26 -6
-26 14 0 68 49 56 50 -6 0 -16 -5 -23 -12z"/>
<path d="M8621 6167 c-13 -21 -12 -21 5 -5 10 10 16 20 13 22 -3 3 -11 -5 -18
-17z"/>
<path d="M8541 6141 c-12 -16 -19 -38 -16 -51 7 -36 15 -36 15 -1 0 17 7 43
16 56 23 35 10 31 -15 -4z"/>
<path d="M8450 6049 c0 -5 5 -7 10 -4 6 3 10 8 10 11 0 2 -4 4 -10 4 -5 0 -10
-5 -10 -11z"/>
<path d="M6730 5940 c0 -24 20 -33 135 -62 44 -11 94 -31 112 -44 17 -13 34
-24 37 -24 9 0 7 63 -2 77 -4 6 -26 12 -48 11 -23 0 -52 3 -65 6 -18 6 -21 5
-9 -3 11 -8 11 -11 2 -11 -7 0 -15 7 -18 15 -4 8 -13 15 -21 15 -7 0 -33 9
-55 20 -53 25 -68 25 -68 0z"/>
<path d="M1 5633 l1 -138 15 55 c11 40 13 77 8 138 -11 129 -25 96 -24 -55z"/>
<path d="M8688 5573 c7 -3 16 -2 19 1 4 3 -2 6 -13 5 -11 0 -14 -3 -6 -6z"/>
<path d="M8733 5573 c9 -2 23 -2 30 0 6 3 -1 5 -18 5 -16 0 -22 -2 -12 -5z"/>
<path d="M8650 5450 c0 -5 5 -10 10 -10 6 0 10 5 10 10 0 6 -4 10 -10 10 -5 0
-10 -4 -10 -10z"/>
<path d="M0 5152 c0 -282 1 -292 19 -292 38 0 50 26 45 93 -3 34 -9 75 -15 91
-5 16 -11 65 -14 110 -3 44 -8 99 -10 121 -3 22 -8 67 -11 100 -3 33 -8 62
-10 64 -2 2 -4 -127 -4 -287z"/>
<path d="M478 5328 c0 -18 -1 -40 0 -48 1 -8 -8 -39 -18 -68 -11 -29 -20 -68
-20 -87 0 -19 -4 -35 -10 -35 -5 0 -10 -7 -10 -15 0 -8 5 -15 11 -15 7 0 9
-12 5 -32 -6 -38 8 -62 44 -72 19 -6 21 -5 10 3 -12 8 -8 11 19 11 19 0 49 5
67 12 30 11 32 15 39 75 4 34 10 63 14 63 13 0 31 85 28 130 -4 59 -10 67 -57
81 -22 7 -40 16 -40 21 0 4 -18 8 -40 8 -38 0 -40 -2 -42 -32z"/>
<path d="M198 5127 c-25 -109 -33 -240 -15 -255 19 -16 42 -7 62 24 18 28 28
245 12 282 -20 44 -41 26 -59 -51z"/>
<path d="M8504 4990 c3 -14 6 -33 6 -43 0 -10 5 -15 11 -11 12 7 3 54 -13 69
-8 7 -9 2 -4 -15z"/>
<path d="M1008 4941 c-26 -33 -20 -63 15 -72 21 -6 29 -3 37 12 6 10 8 19 4
19 -3 0 -2 6 3 13 5 6 10 22 11 33 1 31 -44 27 -70 -5z"/>
<path d="M536 4950 c7 -7 19 -7 35 -1 23 9 22 10 -10 10 -24 1 -32 -2 -25 -9z"/>
<path d="M505 4930 c-4 -6 -3 -16 3 -22 6 -6 12 -6 17 2 4 6 3 16 -3 22 -6 6
-12 6 -17 -2z"/>
<path d="M545 4890 c-3 -5 -1 -10 4 -10 6 0 11 5 11 10 0 6 -2 10 -4 10 -3 0
-8 -4 -11 -10z"/>
<path d="M8065 4770 c3 -5 8 -10 11 -10 2 0 4 5 4 10 0 6 -5 10 -11 10 -5 0
-7 -4 -4 -10z"/>
<path d="M1965 4750 c-3 -5 1 -10 10 -10 9 0 13 5 10 10 -3 6 -8 10 -10 10 -2
0 -7 -4 -10 -10z"/>
<path d="M8040 4734 c0 -8 5 -12 10 -9 6 4 8 11 5 16 -9 14 -15 11 -15 -7z"/>
<path d="M8077 4743 c-14 -13 -6 -20 17 -16 13 3 27 0 30 -6 4 -6 12 -11 18
-11 6 0 -1 9 -15 20 -26 21 -39 24 -50 13z"/>
<path d="M8250 4700 c-8 -5 -11 -12 -8 -16 10 -9 38 3 38 16 0 12 -10 13 -30
0z"/>
<path d="M8280 4670 c0 -5 6 -10 14 -10 8 0 18 5 21 10 3 6 -3 10 -14 10 -12
0 -21 -4 -21 -10z"/>
<path d="M213 4653 c-28 -11 -33 -18 -33 -46 0 -45 31 -64 65 -40 29 21 39 45
30 72 -8 26 -25 30 -62 14z"/>
<path d="M8090 4436 c0 -8 5 -18 10 -21 6 -3 10 1 10 9 0 8 -4 18 -10 21 -5 3
-10 -1 -10 -9z"/>
<path d="M8226 4409 c-10 -32 -14 -89 -7 -89 10 0 25 89 17 97 -3 3 -8 0 -10
-8z"/>
<path d="M9860 4410 c0 -5 7 -10 15 -10 8 0 15 5 15 10 0 6 -7 10 -15 10 -8 0
-15 -4 -15 -10z"/>
<path d="M10160 4390 c0 -5 5 -10 10 -10 6 0 10 5 10 10 0 6 -4 10 -10 10 -5
0 -10 -4 -10 -10z"/>
<path d="M8130 4306 c0 -33 18 -43 35 -20 18 24 14 38 -13 42 -18 3 -22 -2
-22 -22z"/>
<path d="M7820 4175 c0 -4 7 -13 15 -19 13 -9 2 -15 -55 -30 -57 -14 -69 -21
-60 -31 24 -29 235 12 235 45 0 11 -14 16 -54 17 -29 2 -60 8 -67 14 -8 6 -14
8 -14 4z"/>
<path d="M8111 4145 c-25 -27 -18 -33 13 -10 10 7 16 18 15 24 -2 6 -15 -1
-28 -14z"/>
<path d="M7720 4061 c0 -5 5 -13 11 -17 8 -4 8 -9 0 -17 -20 -20 -11 -28 14
-11 14 9 34 14 45 11 11 -3 23 -1 26 5 3 5 13 7 21 4 8 -3 12 -2 8 3 -3 5 -19
12 -35 15 -17 3 -43 9 -60 12 -18 3 -30 1 -30 -5z"/>
<path d="M0 3605 l0 -60 93 3 c91 3 94 4 110 32 l17 29 -57 11 c-32 7 -63 16
-70 22 -7 6 -13 4 -17 -4 -3 -7 -3 -3 0 10 5 21 3 22 -35 20 l-41 -3 0 -60z
m30 35 c0 -5 -5 -10 -11 -10 -5 0 -7 5 -4 10 3 6 8 10 11 10 2 0 4 -4 4 -10z"/>
<path d="M1532 3558 c-6 -6 -12 -16 -12 -20 0 -4 -22 -39 -49 -77 -51 -71 -74
-111 -85 -148 -6 -18 -1 -25 33 -42 60 -31 113 -37 132 -14 17 19 37 94 40
153 5 83 -32 175 -59 148z"/>
<path d="M2801 2104 c0 -11 3 -14 6 -6 3 7 2 16 -1 19 -3 4 -6 -2 -5 -13z"/>
<path d="M7022 1680 c-56 -41 -55 -54 6 -45 55 8 62 11 62 31 0 8 5 14 11 14
8 0 8 5 -1 15 -18 22 -32 19 -78 -15z"/>
<path d="M6261 1567 c-13 -21 -12 -21 5 -5 10 10 16 20 13 22 -3 3 -11 -5 -18
-17z"/>
<path d="M122 413 l-122 -4 0 -123 0 -123 63 -6 c80 -8 327 16 444 44 58 13
173 58 191 74 11 10 9 22 -8 66 -12 30 -26 60 -32 66 -10 13 -187 14 -536 6z"/>
<path d="M795 99 c-9 -13 31 -48 62 -54 16 -4 47 -15 71 -26 32 -14 64 -19
125 -18 l82 0 -115 40 c-151 51 -219 69 -225 58z"/>
</g>
</svg>
